<svg
   xmlns="http://www.w3.org/2000/svg"
   version="1.1"
   id="svg4892"
   viewBox="0 0 320 320.00001"
   height="320"
   width="320"
   
   >
   
  <title>Basket Weave</title>
  <g
   transform="translate(-212.04724,-366.18109)"
   >
      <rect
         width="320"
         height="320"
         x="212.04724"
         y="366.18109" 
         fill="#747571"
         />
      <path
        fill="#32312E"
         d="m 212.04724,366.1811 0,3.32227 0.80859,-0.82032 1.88672,1.88868 1.88672,1.89062 -4.58203,4.58789 0,2.61719 0.98242,-0.98438 6.77929,6.87305 6.7793,6.87305 -1.87109,1.875 -1.87305,1.875 -6.7793,-6.87305 -4.01757,-4.07226 0,4.26953 0.80859,-0.82032 1.88672,1.88868 1.88672,1.89062 -4.58203,4.58789 0,2.61719 0.98242,-0.98438 6.77929,6.87305 6.7793,6.87305 -1.87109,1.875 -1.87305,1.875 -6.7793,-6.87305 -4.01757,-4.07226 0,4.26953 0.80859,-0.82032 1.88672,1.88868 1.88672,1.89062 -4.58203,4.58789 0,2.61719 0.98242,-0.98438 6.77929,6.87305 6.7793,6.87305 -1.87109,1.875 -1.87305,1.875 -6.7793,-6.87305 -4.01757,-4.07226 0,4.26953 0.80859,-0.82032 1.88672,1.88868 1.88672,1.89062 -4.58203,4.58789 0,2.61719 0.98242,-0.98438 6.77929,6.87305 6.7793,6.87305 -1.87109,1.875 -1.87305,1.875 -6.7793,-6.87305 -4.01757,-4.07226 0,4.26953 0.80859,-0.82032 1.88672,1.88868 1.88672,1.89062 -4.58203,4.58789 0,2.61719 0.98242,-0.98438 6.77929,6.87305 6.7793,6.87305 -1.87109,1.875 -1.87305,1.875 -6.7793,-6.87305 -4.01757,-4.07226 0,4.26953 0.80859,-0.82032 1.88672,1.88868 1.88672,1.89062 -4.58203,4.58789 0,2.61719 0.98242,-0.98438 6.77929,6.87305 6.7793,6.87305 -1.87109,1.875 -1.87305,1.875 -6.7793,-6.87305 -4.01757,-4.07226 0,4.26953 0.80859,-0.82032 1.88672,1.88868 1.88672,1.89062 -4.58203,4.58789 0,2.61719 0.98242,-0.98438 6.77929,6.87305 6.7793,6.87305 -1.87109,1.875 -1.87305,1.875 -6.7793,-6.87305 -4.01757,-4.07226 0,4.26953 0.80859,-0.82032 1.88672,1.88868 1.88672,1.89062 -4.58203,4.58789 0,2.61719 0.98242,-0.98438 6.77929,6.87305 6.7793,6.87305 -1.87109,1.875 -1.87305,1.875 -6.7793,-6.87305 -4.01757,-4.07226 0,4.26953 0.80859,-0.82032 1.88672,1.88868 1.88672,1.89062 -4.58203,4.58789 0,2.61719 0.98242,-0.98438 6.77929,6.87305 6.7793,6.87305 -1.87109,1.875 -1.87305,1.875 -6.7793,-6.87305 -4.01757,-4.07226 0,4.26953 0.80859,-0.82032 1.88672,1.88868 1.88672,1.89062 -4.58203,4.58789 0,2.61719 0.98242,-0.98438 6.77929,6.87305 6.7793,6.87305 -1.87109,1.875 -1.87305,1.875 -6.7793,-6.87305 -4.01757,-4.07226 0,4.26953 0.80859,-0.82032 1.88672,1.88868 1.88672,1.89062 -4.58203,4.58789 0,2.61719 0.98242,-0.98438 6.77929,6.87305 6.7793,6.87305 -1.87109,1.875 -1.87305,1.875 -6.7793,-6.87305 -4.01757,-4.07226 0,4.26953 0.80859,-0.82032 1.88672,1.88868 1.88672,1.89062 -4.58203,4.58789 0,2.61719 0.98242,-0.98438 6.77929,6.87305 6.7793,6.87305 -1.87109,1.875 -1.87305,1.875 -6.7793,-6.87305 -4.01757,-4.07226 0,4.26953 0.80859,-0.82032 1.88672,1.88868 1.88672,1.89062 -4.58203,4.58789 0,2.61719 0.98242,-0.98438 6.77929,6.87305 6.7793,6.87305 -1.87109,1.875 -1.87305,1.875 -6.7793,-6.87305 -4.01757,-4.07226 0,4.26953 0.80859,-0.82032 1.88672,1.88868 1.88672,1.89062 -4.58203,4.58789 0,2.61719 0.98242,-0.98438 6.77929,6.87305 6.7793,6.87305 -1.87109,1.875 -1.87305,1.875 -6.7793,-6.87305 -4.01757,-4.07226 0,4.26953 0.80859,-0.82032 1.88672,1.88868 1.88672,1.89062 -4.58203,4.58789 0,2.61719 0.98242,-0.98438 6.77929,6.87305 6.7793,6.87305 -1.87109,1.875 -1.87305,1.875 -6.7793,-6.87305 -4.01757,-4.07226 0,4.26953 0.80859,-0.82032 1.88672,1.88868 1.88672,1.89062 -4.58203,4.58789 0,2.61719 0.98242,-0.98438 6.77929,6.87305 0.61719,0.625 2.1875,0 -1.54297,-1.85937 -1.67383,-2.01954 6.7168,-6.81054 6.71875,-6.8086 1.88672,1.88868 1.88672,1.89062 -6.93164,6.93945 -6.77149,6.7793 10.05469,0 -3.69726,-3.74805 1.87304,-1.875 1.87305,-1.875 6.7793,6.87305 0.61718,0.625 2.1875,0 -1.54296,-1.85937 -1.67383,-2.01954 6.71679,-6.81054 6.7168,-6.8086 1.88867,1.88868 1.88672,1.89062 -6.93164,6.93945 -6.77148,6.7793 10.05468,0 -3.69726,-3.74805 1.87305,-1.875 1.87304,-1.875 6.7793,6.87305 0.61719,0.625 2.18554,0 -1.54297,-1.85937 -1.67187,-2.01954 6.7168,-6.81054 6.71679,-6.8086 1.88672,1.88868 1.88672,1.89062 -6.92969,6.93945 -6.77343,6.7793 10.05664,0 -3.69727,-3.74805 1.87109,-1.875 1.87305,-1.875 6.7793,6.87305 0.61719,0.625 2.1875,0 -1.54297,-1.85937 -1.67383,-2.01954 6.7168,-6.81054 6.71875,-6.8086 1.88671,1.88868 1.88672,1.89062 -6.92968,6.93945 -6.77344,6.7793 10.05469,0 -3.69727,-3.74805 1.87305,-1.875 1.87304,-1.875 6.7793,6.87305 0.61719,0.625 2.1875,0 -1.54297,-1.85937 -1.67383,-2.01954 6.7168,-6.81054 6.7168,-6.8086 1.88867,1.88868 1.88672,1.89062 -6.93165,6.93945 -6.77148,6.7793 10.05469,0 -3.69727,-3.74805 1.87305,-1.875 1.87305,-1.875 6.77929,6.87305 0.61719,0.625 2.18555,0 -1.54102,-1.85937 -1.67383,-2.01954 6.7168,-6.81054 6.7168,-6.8086 1.88672,1.88868 1.88867,1.89062 -6.93164,6.93945 -6.77344,6.7793 10.05664,0 -3.69727,-3.74805 1.8711,-1.875 1.87305,-1.875 6.77929,6.87305 0.61719,0.625 2.1875,0 -1.54297,-1.85937 -1.67383,-2.01954 6.71875,-6.81054 6.7168,-6.8086 1.88672,1.88868 1.88672,1.89062 -6.92969,6.93945 -6.77344,6.7793 10.05469,0 -3.69727,-3.74805 1.87305,-1.875 1.87305,-1.875 6.77929,6.87305 0.61719,0.625 2.1875,0 -1.54297,-1.85937 -1.67382,-2.01954 6.71679,-6.81054 6.7168,-6.8086 1.88867,1.88868 1.88672,1.89062 -6.93164,6.93945 -6.77148,6.7793 10.05468,0 -3.69726,-3.74805 1.87304,-1.875 1.87305,-1.875 6.7793,6.87305 0.61719,0.625 2.1875,0 -1.54297,-1.85937 -1.67383,-2.01954 6.7168,-6.81054 6.71679,-6.8086 1.88672,1.88868 1.88867,1.89062 -6.93164,6.93945 -6.77148,6.7793 10.05468,0 -3.69726,-3.74805 1.87305,-1.875 1.87109,-1.875 6.78125,6.87305 0.61719,0.625 2.18554,0 -1.54296,-1.85937 -1.67383,-2.01954 6.71875,-6.81054 6.71679,-6.8086 1.88672,1.88868 1.88672,1.89062 -6.92969,6.93945 -6.77343,6.7793 10.05468,0 -3.69726,-3.74805 1.87305,-1.875 1.87304,-1.875 6.7793,6.87305 0.61719,0.625 2.1875,0 -1.54297,-1.85937 -1.67383,-2.01954 6.7168,-6.81054 6.71875,-6.8086 1.88672,1.88868 1.88671,1.89062 -6.93164,6.93945 -6.77148,6.7793 10.05469,0 -3.69727,-3.74805 1.87305,-1.875 1.87304,-1.875 6.7793,6.87305 0.61719,0.625 2.1875,0 -1.54297,-1.85937 -1.67383,-2.01954 6.7168,-6.81054 6.7168,-6.8086 1.88867,1.88868 1.88672,1.89062 -6.93164,6.93945 -6.77149,6.7793 10.05469,0 -3.69727,-3.74805 1.87305,-1.875 1.87305,-1.875 6.77929,6.87305 0.61719,0.625 2.18555,0 -1.54297,-1.85937 -1.67187,-2.01954 6.71679,-6.81054 6.7168,-6.8086 1.88672,1.88868 1.88672,1.89062 -6.92969,6.93945 -6.77344,6.7793 10.05664,0 -3.69726,-3.74805 1.87109,-1.875 1.87305,-1.875 6.77929,6.87305 0.61719,0.625 2.1875,0 -1.54297,-1.85937 -1.67383,-2.01954 6.7168,-6.81054 6.71875,-6.8086 1.88672,1.88868 1.88672,1.89062 -6.92969,6.93945 -6.77344,6.7793 10.05469,0 -3.69726,-3.74805 1.87304,-1.875 1.87305,-1.875 6.7793,6.87305 0.61718,0.625 2.1875,0 -1.54296,-1.85937 -1.67383,-2.01954 6.71679,-6.81054 6.7168,-6.8086 1.88867,1.88868 1.88672,1.89062 -6.93164,6.93945 -6.77148,6.7793 10.05468,0 -3.69726,-3.74805 1.87305,-1.875 1.87304,-1.875 6.7793,6.87305 0.61719,0.625 2.18554,0 -1.54101,-1.85937 -1.67383,-2.01954 6.7168,-6.81054 6.29297,-6.37891 0,-3.49023 -3.14649,-3.18946 1.87305,-1.875 1.27344,-1.27539 0,-2.61718 -2.73243,2.73632 -6.93164,6.9375 -1.67187,-2.01757 -1.67383,-2.01954 6.7168,-6.81054 6.29297,-6.37891 0,-3.49023 -3.14649,-3.18946 1.87305,-1.875 1.27344,-1.27539 0,-2.61718 -2.73243,2.73632 -6.93164,6.9375 -1.67187,-2.01757 -1.67383,-2.01954 6.7168,-6.81054 6.29297,-6.37891 0,-3.49023 -3.14649,-3.18946 1.87305,-1.875 1.27344,-1.27539 0,-2.61718 -2.73243,2.73632 -6.93164,6.9375 -1.67187,-2.01757 -1.67383,-2.01954 6.7168,-6.81054 6.29297,-6.37891 0,-3.49023 -3.14649,-3.18946 1.87305,-1.875 1.27344,-1.27539 0,-2.61718 -2.73243,2.73632 -6.93164,6.9375 -1.67187,-2.01757 -1.67383,-2.01954 6.7168,-6.81054 6.29297,-6.37891 0,-3.49023 -3.14649,-3.18946 1.87305,-1.875 1.27344,-1.27539 0,-2.61718 -2.73243,2.73632 -6.93164,6.9375 -1.67187,-2.01757 -1.67383,-2.01954 6.7168,-6.81054 6.29297,-6.37891 0,-3.49023 -3.14649,-3.18946 1.87305,-1.875 1.27344,-1.27539 0,-2.61718 -2.73243,2.73632 -6.93164,6.9375 -1.67187,-2.01757 -1.67383,-2.01954 6.7168,-6.81054 6.29297,-6.37891 0,-3.49023 -3.14649,-3.18946 1.87305,-1.875 1.27344,-1.27539 0,-2.61718 -2.73243,2.73632 -6.93164,6.9375 -1.67187,-2.01757 -1.67383,-2.01954 6.7168,-6.81054 6.29297,-6.37891 0,-3.49023 -3.14649,-3.18946 1.87305,-1.875 1.27344,-1.27539 0,-2.61718 -2.73243,2.73632 -6.93164,6.9375 -1.67187,-2.01757 -1.67383,-2.01954 6.7168,-6.81054 6.29297,-6.37891 0,-3.49023 -3.14649,-3.18946 1.87305,-1.875 1.27344,-1.27539 0,-2.61718 -2.73243,2.73632 -6.93164,6.9375 -1.67187,-2.01757 -1.67383,-2.01954 6.7168,-6.81054 6.29297,-6.37891 0,-3.49023 -3.14649,-3.18946 1.87305,-1.875 1.27344,-1.27539 0,-2.61718 -2.73243,2.73632 -6.93164,6.9375 -1.67187,-2.01757 -1.67383,-2.01954 6.7168,-6.81054 6.29297,-6.37891 0,-3.49023 -3.14649,-3.18946 1.87305,-1.875 1.27344,-1.27539 0,-2.61718 -2.73243,2.73632 -6.93164,6.9375 -1.67187,-2.01757 -1.67383,-2.01954 6.7168,-6.81054 6.29297,-6.37891 0,-3.49023 -3.14649,-3.18946 1.87305,-1.875 1.27344,-1.27539 0,-2.61718 -2.73243,2.73632 -6.93164,6.9375 -1.67187,-2.01757 -1.67383,-2.01954 6.7168,-6.81054 6.29297,-6.37891 0,-3.49023 -3.14649,-3.18946 1.87305,-1.875 1.27344,-1.27539 0,-2.61718 -2.73243,2.73632 -6.93164,6.9375 -1.67187,-2.01757 -1.67383,-2.01954 6.7168,-6.81054 6.29297,-6.37891 0,-3.49023 -3.14649,-3.18946 1.87305,-1.875 1.27344,-1.27539 0,-2.61718 -2.73243,2.73632 -6.93164,6.9375 -1.67187,-2.01757 -1.67383,-2.01954 6.7168,-6.81054 6.29297,-6.37891 0,-3.49023 -3.14649,-3.18946 1.87305,-1.875 1.27344,-1.27539 0,-2.61718 -2.73243,2.73632 -6.93164,6.9375 -1.67187,-2.01757 -1.67383,-2.01954 6.7168,-6.81054 6.29297,-6.37891 0,-2.93164 -9.50586,0 -0.15821,0.1582 -0.13086,-0.1582 -2.18554,0 6.16211,6.24805 -1.87305,1.875 -1.87305,1.875 -6.7793,-6.87305 -3.08203,-3.125 -10.05468,0 -0.15821,0.1582 -0.13086,-0.1582 -2.1875,0 6.16211,6.24805 -1.87304,1.875 -1.87305,1.875 -6.7793,-6.87305 -3.08203,-3.125 -10.05469,0 -0.1582,0.1582 -0.13086,-0.1582 -2.1875,0 6.16211,6.24805 -1.87109,1.875 -1.87305,1.875 -6.7793,-6.87305 -3.08203,-3.125 -10.05664,0 -0.1582,0.1582 -0.13086,-0.1582 -2.18555,0 6.16211,6.24805 -1.87305,1.875 -1.87304,1.875 -6.7793,-6.87305 -3.08203,-3.125 -10.05469,0 -0.1582,0.1582 -0.13086,-0.1582 -2.1875,0 6.16211,6.24805 -1.87305,1.875 -1.87305,1.875 -6.77929,-6.87305 -3.08203,-3.125 -10.05469,0 -0.1582,0.1582 -0.13086,-0.1582 -2.1875,0 6.16211,6.24805 -1.8711,1.875 -1.87304,1.875 -6.7793,-6.87305 -3.08399,-3.125 -10.05468,0 -0.15821,0.1582 -0.13086,-0.1582 -2.18554,0 6.16211,6.24805 -1.87305,1.875 -1.87305,1.875 -6.77929,-6.87305 -3.08204,-3.125 -10.05468,0 -0.15821,0.1582 -0.13085,-0.1582 -2.1875,0 6.1621,6.24805 -1.87304,1.875 -1.87305,1.875 -6.7793,-6.87305 -3.08203,-3.125 -10.05468,0 -0.15821,0.1582 -0.13086,-0.1582 -2.1875,0 6.16211,6.24805 -1.87304,1.875 -1.8711,1.875 -6.78125,-6.87305 -3.08203,-3.125 -10.05469,0 -0.1582,0.1582 -0.13086,-0.1582 -2.1875,0 6.16406,6.24805 -1.87304,1.875 -1.87305,1.875 -6.7793,-6.87305 -3.08203,-3.125 -10.05664,0 -0.1582,0.1582 -0.13086,-0.1582 -2.18555,0 6.16211,6.24805 -1.87305,1.875 -1.87304,1.875 -6.7793,-6.87305 -3.08203,-3.125 -10.05469,0 -0.1582,0.1582 -0.13086,-0.1582 -2.1875,0 6.16211,6.24805 -1.87305,1.875 -1.87305,1.875 -6.77929,-6.87305 -3.08203,-3.125 -10.05469,0 -0.1582,0.1582 -0.13086,-0.1582 -2.1875,0 6.1621,6.24805 -1.87109,1.875 -1.87305,1.875 -6.77929,-6.87305 -3.08203,-3.125 -10.05664,0 -0.15821,0.1582 -0.13086,-0.1582 -2.18554,0 6.16211,6.24805 -1.87305,1.875 -1.87305,1.875 -6.7793,-6.87305 -3.08203,-3.125 -10.05468,0 -0.15821,0.1582 -0.13086,-0.1582 -2.1875,0 6.16211,6.24805 -1.87304,1.875 -1.87305,1.875 -6.7793,-6.87305 -3.08203,-3.125 -10.05469,0 -0.1582,0.1582 -0.13086,-0.1582 -2.1875,0 6.16211,6.24805 -1.87109,1.875 -1.87305,1.875 -6.7793,-6.87305 -3.08398,-3.125 -0.93359,0 z m 20.78515,2.50195 1.88672,1.88868 1.88672,1.89062 -6.93164,6.93945 -6.92969,6.9375 -1.67383,-2.01757 -1.67383,-2.01954 6.7168,-6.81054 6.71875,-6.8086 z m 19.97461,0 1.88867,1.88868 1.88672,1.89062 -6.93164,6.93945 -6.92969,6.9375 -1.67382,-2.01757 -1.67383,-2.01954 6.71679,-6.81054 6.7168,-6.8086 z m 19.97656,0 1.88672,1.88868 1.88672,1.89062 -6.92969,6.93945 -6.93164,6.9375 -1.67383,-2.01757 -1.67187,-2.01954 6.7168,-6.81054 6.71679,-6.8086 z m 19.97657,0 1.88671,1.88868 1.88672,1.89062 -6.92968,6.93945 -6.93164,6.9375 -1.67383,-2.01757 -1.67383,-2.01954 6.7168,-6.81054 6.71875,-6.8086 z m 19.97461,0 1.88867,1.88868 1.88672,1.89062 -6.93165,6.93945 -6.92968,6.9375 -1.67383,-2.01757 -1.67383,-2.01954 6.7168,-6.81054 6.7168,-6.8086 z m 19.97656,0 1.88672,1.88868 1.88867,1.89062 -6.93164,6.93945 -6.93164,6.9375 -1.67188,-2.01757 -1.67383,-2.01954 6.7168,-6.81054 6.7168,-6.8086 z m 19.97656,0 1.88672,1.88868 1.88672,1.89062 -6.92969,6.93945 -6.93164,6.9375 -1.67383,-2.01757 -1.67383,-2.01954 6.71875,-6.81054 6.7168,-6.8086 z m 19.97461,0 1.88867,1.88868 1.88672,1.89062 -6.93164,6.93945 -6.92969,6.9375 -1.67383,-2.01757 -1.67382,-2.01954 6.71679,-6.81054 6.7168,-6.8086 z m 19.97656,0 1.88672,1.88868 1.88867,1.89062 -6.93164,6.93945 -6.92969,6.9375 -1.67382,-2.01757 -1.67383,-2.01954 6.7168,-6.81054 6.71679,-6.8086 z m 19.97656,0 1.88672,1.88868 1.88672,1.89062 -6.92969,6.93945 -6.93164,6.9375 -1.67382,-2.01757 -1.67383,-2.01954 6.71875,-6.81054 6.71679,-6.8086 z m 19.97657,0 1.88672,1.88868 1.88671,1.89062 -6.93164,6.93945 -6.92968,6.9375 -1.67383,-2.01757 -1.67383,-2.01954 6.7168,-6.81054 6.71875,-6.8086 z m 19.97461,0 1.88867,1.88868 1.88672,1.89062 -6.93164,6.93945 -6.92969,6.9375 -1.67383,-2.01757 -1.67383,-2.01954 6.7168,-6.81054 6.7168,-6.8086 z m 19.97656,0 1.88672,1.88868 1.88672,1.89062 -6.92969,6.93945 -6.93164,6.9375 -1.67383,-2.01757 -1.67187,-2.01954 6.71679,-6.81054 6.7168,-6.8086 z m 19.97656,0 1.88672,1.88868 1.88672,1.89062 -6.92969,6.93945 -6.93164,6.9375 -1.67383,-2.01757 -1.67383,-2.01954 6.7168,-6.81054 6.71875,-6.8086 z m 19.97461,0 1.88867,1.88868 1.88672,1.89062 -6.93164,6.93945 -6.92969,6.9375 -1.67382,-2.01757 -1.67383,-2.01954 6.71679,-6.81054 6.7168,-6.8086 z m -279.48828,10 6.7793,6.87305 6.77929,6.87305 -1.87304,1.875 -1.87305,1.875 -6.7793,-6.87305 -6.77929,-6.87305 1.87304,-1.875 1.87305,-1.875 z m 19.97656,0 6.7793,6.87305 6.7793,6.87305 -1.87305,1.875 -1.87305,1.875 -6.7793,-6.87305 -6.77929,-6.87305 1.87305,-1.875 1.87304,-1.875 z m 19.97461,0 6.7793,6.87305 6.77929,6.87305 -1.87109,1.875 -1.87305,1.875 -6.77929,-6.87305 -6.7793,-6.87305 1.87109,-1.875 1.87305,-1.875 z m 19.97656,0 6.7793,6.87305 6.7793,6.87305 -1.87305,1.875 -1.87305,1.875 -6.77929,-6.87305 -6.7793,-6.87305 1.87305,-1.875 1.87304,-1.875 z m 19.97657,0 6.77929,6.87305 6.7793,6.87305 -1.87305,1.875 -1.87304,1.875 -6.7793,-6.87305 -6.7793,-6.87305 1.87305,-1.875 1.87305,-1.875 z m 19.97461,0 6.77929,6.87305 6.78125,6.87305 -1.87304,1.875 -1.87305,1.875 -6.7793,-6.87305 -6.7793,-6.87305 1.8711,-1.875 1.87305,-1.875 z m 19.97656,0 6.77929,6.87305 6.7793,6.87305 -1.87304,1.875 -1.8711,1.875 -6.78125,-6.87305 -6.7793,-6.87305 1.87305,-1.875 1.87305,-1.875 z m 19.97656,0 6.7793,6.87305 6.77929,6.87305 -1.87304,1.875 -1.87305,1.875 -6.7793,-6.87305 -6.77929,-6.87305 1.87304,-1.875 1.87305,-1.875 z m 19.97461,0 6.78125,6.87305 6.7793,6.87305 -1.87305,1.875 -1.87305,1.875 -6.77929,-6.87305 -6.7793,-6.87305 1.87305,-1.875 1.87109,-1.875 z m 19.97656,0 6.7793,6.87305 6.7793,6.87305 -1.8711,1.875 -1.87304,1.875 -6.7793,-6.87305 -6.78125,-6.87305 1.87305,-1.875 1.87304,-1.875 z m 19.97656,0 6.7793,6.87305 6.7793,6.87305 -1.87305,1.875 -1.87305,1.875 -6.77929,-6.87305 -6.7793,-6.87305 1.87305,-1.875 1.87304,-1.875 z m 19.97657,0 6.77929,6.87305 6.7793,6.87305 -1.87305,1.875 -1.87304,1.875 -6.7793,-6.87305 -6.7793,-6.87305 1.87305,-1.875 1.87305,-1.875 z m 19.97461,0 6.77929,6.87305 6.7793,6.87305 -1.87109,1.875 -1.87305,1.875 -6.7793,-6.87305 -6.77929,-6.87305 1.87109,-1.875 1.87305,-1.875 z m 19.97656,0 6.7793,6.87305 6.77929,6.87305 -1.87304,1.875 -1.87305,1.875 -6.7793,-6.87305 -6.77929,-6.87305 1.87304,-1.875 1.87305,-1.875 z m 19.97656,0 6.7793,6.87305 6.7793,6.87305 -1.87305,1.875 -1.87305,1.875 -6.7793,-6.87305 -6.77929,-6.87305 1.87305,-1.875 1.87304,-1.875 z m -279.83789,10 1.88672,1.88868 1.88672,1.89062 -6.93164,6.93945 -6.92969,6.9375 -1.67383,-2.01757 -1.67383,-2.01954 6.7168,-6.81054 6.71875,-6.8086 z m 19.97461,0 1.88867,1.88868 1.88672,1.89062 -6.93164,6.93945 -6.92969,6.9375 -1.67382,-2.01757 -1.67383,-2.01954 6.71679,-6.81054 6.7168,-6.8086 z m 19.97656,0 1.88672,1.88868 1.88672,1.89062 -6.92969,6.93945 -6.93164,6.9375 -1.67383,-2.01757 -1.67187,-2.01954 6.7168,-6.81054 6.71679,-6.8086 z m 19.97657,0 1.88671,1.88868 1.88672,1.89062 -6.92968,6.93945 -6.93164,6.9375 -1.67383,-2.01757 -1.67383,-2.01954 6.7168,-6.81054 6.71875,-6.8086 z m 19.97461,0 1.88867,1.88868 1.88672,1.89062 -6.93165,6.93945 -6.92968,6.9375 -1.67383,-2.01757 -1.67383,-2.01954 6.7168,-6.81054 6.7168,-6.8086 z m 19.97656,0 1.88672,1.88868 1.88867,1.89062 -6.93164,6.93945 -6.93164,6.9375 -1.67188,-2.01757 -1.67383,-2.01954 6.7168,-6.81054 6.7168,-6.8086 z m 19.97656,0 1.88672,1.88868 1.88672,1.89062 -6.92969,6.93945 -6.93164,6.9375 -1.67383,-2.01757 -1.67383,-2.01954 6.71875,-6.81054 6.7168,-6.8086 z m 19.97461,0 1.88867,1.88868 1.88672,1.89062 -6.93164,6.93945 -6.92969,6.9375 -1.67383,-2.01757 -1.67382,-2.01954 6.71679,-6.81054 6.7168,-6.8086 z m 19.97656,0 1.88672,1.88868 1.88867,1.89062 -6.93164,6.93945 -6.92969,6.9375 -1.67382,-2.01757 -1.67383,-2.01954 6.7168,-6.81054 6.71679,-6.8086 z m 19.97656,0 1.88672,1.88868 1.88672,1.89062 -6.92969,6.93945 -6.93164,6.9375 -1.67382,-2.01757 -1.67383,-2.01954 6.71875,-6.81054 6.71679,-6.8086 z m 19.97657,0 1.88672,1.88868 1.88671,1.89062 -6.93164,6.93945 -6.92968,6.9375 -1.67383,-2.01757 -1.67383,-2.01954 6.7168,-6.81054 6.71875,-6.8086 z m 19.97461,0 1.88867,1.88868 1.88672,1.89062 -6.93164,6.93945 -6.92969,6.9375 -1.67383,-2.01757 -1.67383,-2.01954 6.7168,-6.81054 6.7168,-6.8086 z m 19.97656,0 1.88672,1.88868 1.88672,1.89062 -6.92969,6.93945 -6.93164,6.9375 -1.67383,-2.01757 -1.67187,-2.01954 6.71679,-6.81054 6.7168,-6.8086 z m 19.97656,0 1.88672,1.88868 1.88672,1.89062 -6.92969,6.93945 -6.93164,6.9375 -1.67383,-2.01757 -1.67383,-2.01954 6.7168,-6.81054 6.71875,-6.8086 z m 19.97461,0 1.88867,1.88868 1.88672,1.89062 -6.93164,6.93945 -6.92969,6.9375 -1.67382,-2.01757 -1.67383,-2.01954 6.71679,-6.81054 6.7168,-6.8086 z m -279.48828,10 6.7793,6.87305 6.77929,6.87305 -1.87304,1.875 -1.87305,1.875 -6.7793,-6.87305 -6.77929,-6.87305 1.87304,-1.875 1.87305,-1.875 z m 19.97656,0 6.7793,6.87305 6.7793,6.87305 -1.87305,1.875 -1.87305,1.875 -6.7793,-6.87305 -6.77929,-6.87305 1.87305,-1.875 1.87304,-1.875 z m 19.97461,0 6.7793,6.87305 6.77929,6.87305 -1.87109,1.875 -1.87305,1.875 -6.77929,-6.87305 -6.7793,-6.87305 1.87109,-1.875 1.87305,-1.875 z m 19.97656,0 6.7793,6.87305 6.7793,6.87305 -1.87305,1.875 -1.87305,1.875 -6.77929,-6.87305 -6.7793,-6.87305 1.87305,-1.875 1.87304,-1.875 z m 19.97657,0 6.77929,6.87305 6.7793,6.87305 -1.87305,1.875 -1.87304,1.875 -6.7793,-6.87305 -6.7793,-6.87305 1.87305,-1.875 1.87305,-1.875 z m 19.97461,0 6.77929,6.87305 6.78125,6.87305 -1.87304,1.875 -1.87305,1.875 -6.7793,-6.87305 -6.7793,-6.87305 1.8711,-1.875 1.87305,-1.875 z m 19.97656,0 6.77929,6.87305 6.7793,6.87305 -1.87304,1.875 -1.8711,1.875 -6.78125,-6.87305 -6.7793,-6.87305 1.87305,-1.875 1.87305,-1.875 z m 19.97656,0 6.7793,6.87305 6.77929,6.87305 -1.87304,1.875 -1.87305,1.875 -6.7793,-6.87305 -6.77929,-6.87305 1.87304,-1.875 1.87305,-1.875 z m 19.97461,0 6.78125,6.87305 6.7793,6.87305 -1.87305,1.875 -1.87305,1.875 -6.77929,-6.87305 -6.7793,-6.87305 1.87305,-1.875 1.87109,-1.875 z m 19.97656,0 6.7793,6.87305 6.7793,6.87305 -1.8711,1.875 -1.87304,1.875 -6.7793,-6.87305 -6.78125,-6.87305 1.87305,-1.875 1.87304,-1.875 z m 19.97656,0 6.7793,6.87305 6.7793,6.87305 -1.87305,1.875 -1.87305,1.875 -6.77929,-6.87305 -6.7793,-6.87305 1.87305,-1.875 1.87304,-1.875 z m 19.97657,0 6.77929,6.87305 6.7793,6.87305 -1.87305,1.875 -1.87304,1.875 -6.7793,-6.87305 -6.7793,-6.87305 1.87305,-1.875 1.87305,-1.875 z m 19.97461,0 6.77929,6.87305 6.7793,6.87305 -1.87109,1.875 -1.87305,1.875 -6.7793,-6.87305 -6.77929,-6.87305 1.87109,-1.875 1.87305,-1.875 z m 19.97656,0 6.7793,6.87305 6.77929,6.87305 -1.87304,1.875 -1.87305,1.875 -6.7793,-6.87305 -6.77929,-6.87305 1.87304,-1.875 1.87305,-1.875 z m 19.97656,0 6.7793,6.87305 6.7793,6.87305 -1.87305,1.875 -1.87305,1.875 -6.7793,-6.87305 -6.77929,-6.87305 1.87305,-1.875 1.87304,-1.875 z m -279.83789,10 1.88672,1.88868 1.88672,1.89062 -6.93164,6.93945 -6.92969,6.9375 -1.67383,-2.01757 -1.67383,-2.01954 6.7168,-6.81054 6.71875,-6.8086 z m 19.97461,0 1.88867,1.88868 1.88672,1.89062 -6.93164,6.93945 -6.92969,6.9375 -1.67382,-2.01757 -1.67383,-2.01954 6.71679,-6.81054 6.7168,-6.8086 z m 19.97656,0 1.88672,1.88868 1.88672,1.89062 -6.92969,6.93945 -6.93164,6.9375 -1.67383,-2.01757 -1.67187,-2.01954 6.7168,-6.81054 6.71679,-6.8086 z m 19.97657,0 1.88671,1.88868 1.88672,1.89062 -6.92968,6.93945 -6.93164,6.9375 -1.67383,-2.01757 -1.67383,-2.01954 6.7168,-6.81054 6.71875,-6.8086 z m 19.97461,0 1.88867,1.88868 1.88672,1.89062 -6.93165,6.93945 -6.92968,6.9375 -1.67383,-2.01757 -1.67383,-2.01954 6.7168,-6.81054 6.7168,-6.8086 z m 19.97656,0 1.88672,1.88868 1.88867,1.89062 -6.93164,6.93945 -6.93164,6.9375 -1.67188,-2.01757 -1.67383,-2.01954 6.7168,-6.81054 6.7168,-6.8086 z m 19.97656,0 1.88672,1.88868 1.88672,1.89062 -6.92969,6.93945 -6.93164,6.9375 -1.67383,-2.01757 -1.67383,-2.01954 6.71875,-6.81054 6.7168,-6.8086 z m 19.97461,0 1.88867,1.88868 1.88672,1.89062 -6.93164,6.93945 -6.92969,6.9375 -1.67383,-2.01757 -1.67382,-2.01954 6.71679,-6.81054 6.7168,-6.8086 z m 19.97656,0 1.88672,1.88868 1.88867,1.89062 -6.93164,6.93945 -6.92969,6.9375 -1.67382,-2.01757 -1.67383,-2.01954 6.7168,-6.81054 6.71679,-6.8086 z m 19.97656,0 1.88672,1.88868 1.88672,1.89062 -6.92969,6.93945 -6.93164,6.9375 -1.67382,-2.01757 -1.67383,-2.01954 6.71875,-6.81054 6.71679,-6.8086 z m 19.97657,0 1.88672,1.88868 1.88671,1.89062 -6.93164,6.93945 -6.92968,6.9375 -1.67383,-2.01757 -1.67383,-2.01954 6.7168,-6.81054 6.71875,-6.8086 z m 19.97461,0 1.88867,1.88868 1.88672,1.89062 -6.93164,6.93945 -6.92969,6.9375 -1.67383,-2.01757 -1.67383,-2.01954 6.7168,-6.81054 6.7168,-6.8086 z m 19.97656,0 1.88672,1.88868 1.88672,1.89062 -6.92969,6.93945 -6.93164,6.9375 -1.67383,-2.01757 -1.67187,-2.01954 6.71679,-6.81054 6.7168,-6.8086 z m 19.97656,0 1.88672,1.88868 1.88672,1.89062 -6.92969,6.93945 -6.93164,6.9375 -1.67383,-2.01757 -1.67383,-2.01954 6.7168,-6.81054 6.71875,-6.8086 z m 19.97461,0 1.88867,1.88868 1.88672,1.89062 -6.93164,6.93945 -6.92969,6.9375 -1.67382,-2.01757 -1.67383,-2.01954 6.71679,-6.81054 6.7168,-6.8086 z m -279.48828,10 6.7793,6.87305 6.77929,6.87305 -1.87304,1.875 -1.87305,1.875 -6.7793,-6.87305 -6.77929,-6.87305 1.87304,-1.875 1.87305,-1.875 z m 19.97656,0 6.7793,6.87305 6.7793,6.87305 -1.87305,1.875 -1.87305,1.875 -6.7793,-6.87305 -6.77929,-6.87305 1.87305,-1.875 1.87304,-1.875 z m 19.97461,0 6.7793,6.87305 6.77929,6.87305 -1.87109,1.875 -1.87305,1.875 -6.77929,-6.87305 -6.7793,-6.87305 1.87109,-1.875 1.87305,-1.875 z m 19.97656,0 6.7793,6.87305 6.7793,6.87305 -1.87305,1.875 -1.87305,1.875 -6.77929,-6.87305 -6.7793,-6.87305 1.87305,-1.875 1.87304,-1.875 z m 19.97657,0 6.77929,6.87305 6.7793,6.87305 -1.87305,1.875 -1.87304,1.875 -6.7793,-6.87305 -6.7793,-6.87305 1.87305,-1.875 1.87305,-1.875 z m 19.97461,0 6.77929,6.87305 6.78125,6.87305 -1.87304,1.875 -1.87305,1.875 -6.7793,-6.87305 -6.7793,-6.87305 1.8711,-1.875 1.87305,-1.875 z m 19.97656,0 6.77929,6.87305 6.7793,6.87305 -1.87304,1.875 -1.8711,1.875 -6.78125,-6.87305 -6.7793,-6.87305 1.87305,-1.875 1.87305,-1.875 z m 19.97656,0 6.7793,6.87305 6.77929,6.87305 -1.87304,1.875 -1.87305,1.875 -6.7793,-6.87305 -6.77929,-6.87305 1.87304,-1.875 1.87305,-1.875 z m 19.97461,0 6.78125,6.87305 6.7793,6.87305 -1.87305,1.875 -1.87305,1.875 -6.77929,-6.87305 -6.7793,-6.87305 1.87305,-1.875 1.87109,-1.875 z m 19.97656,0 6.7793,6.87305 6.7793,6.87305 -1.8711,1.875 -1.87304,1.875 -6.7793,-6.87305 -6.78125,-6.87305 1.87305,-1.875 1.87304,-1.875 z m 19.97656,0 6.7793,6.87305 6.7793,6.87305 -1.87305,1.875 -1.87305,1.875 -6.77929,-6.87305 -6.7793,-6.87305 1.87305,-1.875 1.87304,-1.875 z m 19.97657,0 6.77929,6.87305 6.7793,6.87305 -1.87305,1.875 -1.87304,1.875 -6.7793,-6.87305 -6.7793,-6.87305 1.87305,-1.875 1.87305,-1.875 z m 19.97461,0 6.77929,6.87305 6.7793,6.87305 -1.87109,1.875 -1.87305,1.875 -6.7793,-6.87305 -6.77929,-6.87305 1.87109,-1.875 1.87305,-1.875 z m 19.97656,0 6.7793,6.87305 6.77929,6.87305 -1.87304,1.875 -1.87305,1.875 -6.7793,-6.87305 -6.77929,-6.87305 1.87304,-1.875 1.87305,-1.875 z m 19.97656,0 6.7793,6.87305 6.7793,6.87305 -1.87305,1.875 -1.87305,1.875 -6.7793,-6.87305 -6.77929,-6.87305 1.87305,-1.875 1.87304,-1.875 z m -279.83789,10 1.88672,1.88868 1.88672,1.89062 -6.93164,6.93945 -6.92969,6.9375 -1.67383,-2.01757 -1.67383,-2.01954 6.7168,-6.81054 6.71875,-6.8086 z m 19.97461,0 1.88867,1.88868 1.88672,1.89062 -6.93164,6.93945 -6.92969,6.9375 -1.67382,-2.01757 -1.67383,-2.01954 6.71679,-6.81054 6.7168,-6.8086 z m 19.97656,0 1.88672,1.88868 1.88672,1.89062 -6.92969,6.93945 -6.93164,6.9375 -1.67383,-2.01757 -1.67187,-2.01954 6.7168,-6.81054 6.71679,-6.8086 z m 19.97657,0 1.88671,1.88868 1.88672,1.89062 -6.92968,6.93945 -6.93164,6.9375 -1.67383,-2.01757 -1.67383,-2.01954 6.7168,-6.81054 6.71875,-6.8086 z m 19.97461,0 1.88867,1.88868 1.88672,1.89062 -6.93165,6.93945 -6.92968,6.9375 -1.67383,-2.01757 -1.67383,-2.01954 6.7168,-6.81054 6.7168,-6.8086 z m 19.97656,0 1.88672,1.88868 1.88867,1.89062 -6.93164,6.93945 -6.93164,6.9375 -1.67188,-2.01757 -1.67383,-2.01954 6.7168,-6.81054 6.7168,-6.8086 z m 19.97656,0 1.88672,1.88868 1.88672,1.89062 -6.92969,6.93945 -6.93164,6.9375 -1.67383,-2.01757 -1.67383,-2.01954 6.71875,-6.81054 6.7168,-6.8086 z m 19.97461,0 1.88867,1.88868 1.88672,1.89062 -6.93164,6.93945 -6.92969,6.9375 -1.67383,-2.01757 -1.67382,-2.01954 6.71679,-6.81054 6.7168,-6.8086 z m 19.97656,0 1.88672,1.88868 1.88867,1.89062 -6.93164,6.93945 -6.92969,6.9375 -1.67382,-2.01757 -1.67383,-2.01954 6.7168,-6.81054 6.71679,-6.8086 z m 19.97656,0 1.88672,1.88868 1.88672,1.89062 -6.92969,6.93945 -6.93164,6.9375 -1.67382,-2.01757 -1.67383,-2.01954 6.71875,-6.81054 6.71679,-6.8086 z m 19.97657,0 1.88672,1.88868 1.88671,1.89062 -6.93164,6.93945 -6.92968,6.9375 -1.67383,-2.01757 -1.67383,-2.01954 6.7168,-6.81054 6.71875,-6.8086 z m 19.97461,0 1.88867,1.88868 1.88672,1.89062 -6.93164,6.93945 -6.92969,6.9375 -1.67383,-2.01757 -1.67383,-2.01954 6.7168,-6.81054 6.7168,-6.8086 z m 19.97656,0 1.88672,1.88868 1.88672,1.89062 -6.92969,6.93945 -6.93164,6.9375 -1.67383,-2.01757 -1.67187,-2.01954 6.71679,-6.81054 6.7168,-6.8086 z m 19.97656,0 1.88672,1.88868 1.88672,1.89062 -6.92969,6.93945 -6.93164,6.9375 -1.67383,-2.01757 -1.67383,-2.01954 6.7168,-6.81054 6.71875,-6.8086 z m 19.97461,0 1.88867,1.88868 1.88672,1.89062 -6.93164,6.93945 -6.92969,6.9375 -1.67382,-2.01757 -1.67383,-2.01954 6.71679,-6.81054 6.7168,-6.8086 z m -279.48828,10 6.7793,6.87305 6.77929,6.87305 -1.87304,1.875 -1.87305,1.875 -6.7793,-6.87305 -6.77929,-6.87305 1.87304,-1.875 1.87305,-1.875 z m 19.97656,0 6.7793,6.87305 6.7793,6.87305 -1.87305,1.875 -1.87305,1.875 -6.7793,-6.87305 -6.77929,-6.87305 1.87305,-1.875 1.87304,-1.875 z m 19.97461,0 6.7793,6.87305 6.77929,6.87305 -1.87109,1.875 -1.87305,1.875 -6.77929,-6.87305 -6.7793,-6.87305 1.87109,-1.875 1.87305,-1.875 z m 19.97656,0 6.7793,6.87305 6.7793,6.87305 -1.87305,1.875 -1.87305,1.875 -6.77929,-6.87305 -6.7793,-6.87305 1.87305,-1.875 1.87304,-1.875 z m 19.97657,0 6.77929,6.87305 6.7793,6.87305 -1.87305,1.875 -1.87304,1.875 -6.7793,-6.87305 -6.7793,-6.87305 1.87305,-1.875 1.87305,-1.875 z m 19.97461,0 6.77929,6.87305 6.78125,6.87305 -1.87304,1.875 -1.87305,1.875 -6.7793,-6.87305 -6.7793,-6.87305 1.8711,-1.875 1.87305,-1.875 z m 19.97656,0 6.77929,6.87305 6.7793,6.87305 -1.87304,1.875 -1.8711,1.875 -6.78125,-6.87305 -6.7793,-6.87305 1.87305,-1.875 1.87305,-1.875 z m 19.97656,0 6.7793,6.87305 6.77929,6.87305 -1.87304,1.875 -1.87305,1.875 -6.7793,-6.87305 -6.77929,-6.87305 1.87304,-1.875 1.87305,-1.875 z m 19.97461,0 6.78125,6.87305 6.7793,6.87305 -1.87305,1.875 -1.87305,1.875 -6.77929,-6.87305 -6.7793,-6.87305 1.87305,-1.875 1.87109,-1.875 z m 19.97656,0 6.7793,6.87305 6.7793,6.87305 -1.8711,1.875 -1.87304,1.875 -6.7793,-6.87305 -6.78125,-6.87305 1.87305,-1.875 1.87304,-1.875 z m 19.97656,0 6.7793,6.87305 6.7793,6.87305 -1.87305,1.875 -1.87305,1.875 -6.77929,-6.87305 -6.7793,-6.87305 1.87305,-1.875 1.87304,-1.875 z m 19.97657,0 6.77929,6.87305 6.7793,6.87305 -1.87305,1.875 -1.87304,1.875 -6.7793,-6.87305 -6.7793,-6.87305 1.87305,-1.875 1.87305,-1.875 z m 19.97461,0 6.77929,6.87305 6.7793,6.87305 -1.87109,1.875 -1.87305,1.875 -6.7793,-6.87305 -6.77929,-6.87305 1.87109,-1.875 1.87305,-1.875 z m 19.97656,0 6.7793,6.87305 6.77929,6.87305 -1.87304,1.875 -1.87305,1.875 -6.7793,-6.87305 -6.77929,-6.87305 1.87304,-1.875 1.87305,-1.875 z m 19.97656,0 6.7793,6.87305 6.7793,6.87305 -1.87305,1.875 -1.87305,1.875 -6.7793,-6.87305 -6.77929,-6.87305 1.87305,-1.875 1.87304,-1.875 z m -279.83789,10 1.88672,1.88868 1.88672,1.89062 -6.93164,6.93945 -6.92969,6.9375 -1.67383,-2.01757 -1.67383,-2.01954 6.7168,-6.81054 6.71875,-6.8086 z m 19.97461,0 1.88867,1.88868 1.88672,1.89062 -6.93164,6.93945 -6.92969,6.9375 -1.67382,-2.01757 -1.67383,-2.01954 6.71679,-6.81054 6.7168,-6.8086 z m 19.97656,0 1.88672,1.88868 1.88672,1.89062 -6.92969,6.93945 -6.93164,6.9375 -1.67383,-2.01757 -1.67187,-2.01954 6.7168,-6.81054 6.71679,-6.8086 z m 19.97657,0 1.88671,1.88868 1.88672,1.89062 -6.92968,6.93945 -6.93164,6.9375 -1.67383,-2.01757 -1.67383,-2.01954 6.7168,-6.81054 6.71875,-6.8086 z m 19.97461,0 1.88867,1.88868 1.88672,1.89062 -6.93165,6.93945 -6.92968,6.9375 -1.67383,-2.01757 -1.67383,-2.01954 6.7168,-6.81054 6.7168,-6.8086 z m 19.97656,0 1.88672,1.88868 1.88867,1.89062 -6.93164,6.93945 -6.93164,6.9375 -1.67188,-2.01757 -1.67383,-2.01954 6.7168,-6.81054 6.7168,-6.8086 z m 19.97656,0 1.88672,1.88868 1.88672,1.89062 -6.92969,6.93945 -6.93164,6.9375 -1.67383,-2.01757 -1.67383,-2.01954 6.71875,-6.81054 6.7168,-6.8086 z m 19.97461,0 1.88867,1.88868 1.88672,1.89062 -6.93164,6.93945 -6.92969,6.9375 -1.67383,-2.01757 -1.67382,-2.01954 6.71679,-6.81054 6.7168,-6.8086 z m 19.97656,0 1.88672,1.88868 1.88867,1.89062 -6.93164,6.93945 -6.92969,6.9375 -1.67382,-2.01757 -1.67383,-2.01954 6.7168,-6.81054 6.71679,-6.8086 z m 19.97656,0 1.88672,1.88868 1.88672,1.89062 -6.92969,6.93945 -6.93164,6.9375 -1.67382,-2.01757 -1.67383,-2.01954 6.71875,-6.81054 6.71679,-6.8086 z m 19.97657,0 1.88672,1.88868 1.88671,1.89062 -6.93164,6.93945 -6.92968,6.9375 -1.67383,-2.01757 -1.67383,-2.01954 6.7168,-6.81054 6.71875,-6.8086 z m 19.97461,0 1.88867,1.88868 1.88672,1.89062 -6.93164,6.93945 -6.92969,6.9375 -1.67383,-2.01757 -1.67383,-2.01954 6.7168,-6.81054 6.7168,-6.8086 z m 19.97656,0 1.88672,1.88868 1.88672,1.89062 -6.92969,6.93945 -6.93164,6.9375 -1.67383,-2.01757 -1.67187,-2.01954 6.71679,-6.81054 6.7168,-6.8086 z m 19.97656,0 1.88672,1.88868 1.88672,1.89062 -6.92969,6.93945 -6.93164,6.9375 -1.67383,-2.01757 -1.67383,-2.01954 6.7168,-6.81054 6.71875,-6.8086 z m 19.97461,0 1.88867,1.88868 1.88672,1.89062 -6.93164,6.93945 -6.92969,6.9375 -1.67382,-2.01757 -1.67383,-2.01954 6.71679,-6.81054 6.7168,-6.8086 z m -279.48828,10 6.7793,6.87305 6.77929,6.87305 -1.87304,1.875 -1.87305,1.875 -6.7793,-6.87305 -6.77929,-6.87305 1.87304,-1.875 1.87305,-1.875 z m 19.97656,0 6.7793,6.87305 6.7793,6.87305 -1.87305,1.875 -1.87305,1.875 -6.7793,-6.87305 -6.77929,-6.87305 1.87305,-1.875 1.87304,-1.875 z m 19.97461,0 6.7793,6.87305 6.77929,6.87305 -1.87109,1.875 -1.87305,1.875 -6.77929,-6.87305 -6.7793,-6.87305 1.87109,-1.875 1.87305,-1.875 z m 19.97656,0 6.7793,6.87305 6.7793,6.87305 -1.87305,1.875 -1.87305,1.875 -6.77929,-6.87305 -6.7793,-6.87305 1.87305,-1.875 1.87304,-1.875 z m 19.97657,0 6.77929,6.87305 6.7793,6.87305 -1.87305,1.875 -1.87304,1.875 -6.7793,-6.87305 -6.7793,-6.87305 1.87305,-1.875 1.87305,-1.875 z m 19.97461,0 6.77929,6.87305 6.78125,6.87305 -1.87304,1.875 -1.87305,1.875 -6.7793,-6.87305 -6.7793,-6.87305 1.8711,-1.875 1.87305,-1.875 z m 19.97656,0 6.77929,6.87305 6.7793,6.87305 -1.87304,1.875 -1.8711,1.875 -6.78125,-6.87305 -6.7793,-6.87305 1.87305,-1.875 1.87305,-1.875 z m 19.97656,0 6.7793,6.87305 6.77929,6.87305 -1.87304,1.875 -1.87305,1.875 -6.7793,-6.87305 -6.77929,-6.87305 1.87304,-1.875 1.87305,-1.875 z m 19.97461,0 6.78125,6.87305 6.7793,6.87305 -1.87305,1.875 -1.87305,1.875 -6.77929,-6.87305 -6.7793,-6.87305 1.87305,-1.875 1.87109,-1.875 z m 19.97656,0 6.7793,6.87305 6.7793,6.87305 -1.8711,1.875 -1.87304,1.875 -6.7793,-6.87305 -6.78125,-6.87305 1.87305,-1.875 1.87304,-1.875 z m 19.97656,0 6.7793,6.87305 6.7793,6.87305 -1.87305,1.875 -1.87305,1.875 -6.77929,-6.87305 -6.7793,-6.87305 1.87305,-1.875 1.87304,-1.875 z m 19.97657,0 6.77929,6.87305 6.7793,6.87305 -1.87305,1.875 -1.87304,1.875 -6.7793,-6.87305 -6.7793,-6.87305 1.87305,-1.875 1.87305,-1.875 z m 19.97461,0 6.77929,6.87305 6.7793,6.87305 -1.87109,1.875 -1.87305,1.875 -6.7793,-6.87305 -6.77929,-6.87305 1.87109,-1.875 1.87305,-1.875 z m 19.97656,0 6.7793,6.87305 6.77929,6.87305 -1.87304,1.875 -1.87305,1.875 -6.7793,-6.87305 -6.77929,-6.87305 1.87304,-1.875 1.87305,-1.875 z m 19.97656,0 6.7793,6.87305 6.7793,6.87305 -1.87305,1.875 -1.87305,1.875 -6.7793,-6.87305 -6.77929,-6.87305 1.87305,-1.875 1.87304,-1.875 z m -279.83789,10 1.88672,1.88868 1.88672,1.89062 -6.93164,6.93945 -6.92969,6.9375 -1.67383,-2.01757 -1.67383,-2.01954 6.7168,-6.81054 6.71875,-6.8086 z m 19.97461,0 1.88867,1.88868 1.88672,1.89062 -6.93164,6.93945 -6.92969,6.9375 -1.67382,-2.01757 -1.67383,-2.01954 6.71679,-6.81054 6.7168,-6.8086 z m 19.97656,0 1.88672,1.88868 1.88672,1.89062 -6.92969,6.93945 -6.93164,6.9375 -1.67383,-2.01757 -1.67187,-2.01954 6.7168,-6.81054 6.71679,-6.8086 z m 19.97657,0 1.88671,1.88868 1.88672,1.89062 -6.92968,6.93945 -6.93164,6.9375 -1.67383,-2.01757 -1.67383,-2.01954 6.7168,-6.81054 6.71875,-6.8086 z m 19.97461,0 1.88867,1.88868 1.88672,1.89062 -6.93165,6.93945 -6.92968,6.9375 -1.67383,-2.01757 -1.67383,-2.01954 6.7168,-6.81054 6.7168,-6.8086 z m 19.97656,0 1.88672,1.88868 1.88867,1.89062 -6.93164,6.93945 -6.93164,6.9375 -1.67188,-2.01757 -1.67383,-2.01954 6.7168,-6.81054 6.7168,-6.8086 z m 19.97656,0 1.88672,1.88868 1.88672,1.89062 -6.92969,6.93945 -6.93164,6.9375 -1.67383,-2.01757 -1.67383,-2.01954 6.71875,-6.81054 6.7168,-6.8086 z m 19.97461,0 1.88867,1.88868 1.88672,1.89062 -6.93164,6.93945 -6.92969,6.9375 -1.67383,-2.01757 -1.67382,-2.01954 6.71679,-6.81054 6.7168,-6.8086 z m 19.97656,0 1.88672,1.88868 1.88867,1.89062 -6.93164,6.93945 -6.92969,6.9375 -1.67382,-2.01757 -1.67383,-2.01954 6.7168,-6.81054 6.71679,-6.8086 z m 19.97656,0 1.88672,1.88868 1.88672,1.89062 -6.92969,6.93945 -6.93164,6.9375 -1.67382,-2.01757 -1.67383,-2.01954 6.71875,-6.81054 6.71679,-6.8086 z m 19.97657,0 1.88672,1.88868 1.88671,1.89062 -6.93164,6.93945 -6.92968,6.9375 -1.67383,-2.01757 -1.67383,-2.01954 6.7168,-6.81054 6.71875,-6.8086 z m 19.97461,0 1.88867,1.88868 1.88672,1.89062 -6.93164,6.93945 -6.92969,6.9375 -1.67383,-2.01757 -1.67383,-2.01954 6.7168,-6.81054 6.7168,-6.8086 z m 19.97656,0 1.88672,1.88868 1.88672,1.89062 -6.92969,6.93945 -6.93164,6.9375 -1.67383,-2.01757 -1.67187,-2.01954 6.71679,-6.81054 6.7168,-6.8086 z m 19.97656,0 1.88672,1.88868 1.88672,1.89062 -6.92969,6.93945 -6.93164,6.9375 -1.67383,-2.01757 -1.67383,-2.01954 6.7168,-6.81054 6.71875,-6.8086 z m 19.97461,0 1.88867,1.88868 1.88672,1.89062 -6.93164,6.93945 -6.92969,6.9375 -1.67382,-2.01757 -1.67383,-2.01954 6.71679,-6.81054 6.7168,-6.8086 z m -279.48828,10 6.7793,6.87305 6.77929,6.87305 -1.87304,1.875 -1.87305,1.875 -6.7793,-6.87305 -6.77929,-6.87305 1.87304,-1.875 1.87305,-1.875 z m 19.97656,0 6.7793,6.87305 6.7793,6.87305 -1.87305,1.875 -1.87305,1.875 -6.7793,-6.87305 -6.77929,-6.87305 1.87305,-1.875 1.87304,-1.875 z m 19.97461,0 6.7793,6.87305 6.77929,6.87305 -1.87109,1.875 -1.87305,1.875 -6.77929,-6.87305 -6.7793,-6.87305 1.87109,-1.875 1.87305,-1.875 z m 19.97656,0 6.7793,6.87305 6.7793,6.87305 -1.87305,1.875 -1.87305,1.875 -6.77929,-6.87305 -6.7793,-6.87305 1.87305,-1.875 1.87304,-1.875 z m 19.97657,0 6.77929,6.87305 6.7793,6.87305 -1.87305,1.875 -1.87304,1.875 -6.7793,-6.87305 -6.7793,-6.87305 1.87305,-1.875 1.87305,-1.875 z m 19.97461,0 6.77929,6.87305 6.78125,6.87305 -1.87304,1.875 -1.87305,1.875 -6.7793,-6.87305 -6.7793,-6.87305 1.8711,-1.875 1.87305,-1.875 z m 19.97656,0 6.77929,6.87305 6.7793,6.87305 -1.87304,1.875 -1.8711,1.875 -6.78125,-6.87305 -6.7793,-6.87305 1.87305,-1.875 1.87305,-1.875 z m 19.97656,0 6.7793,6.87305 6.77929,6.87305 -1.87304,1.875 -1.87305,1.875 -6.7793,-6.87305 -6.77929,-6.87305 1.87304,-1.875 1.87305,-1.875 z m 19.97461,0 6.78125,6.87305 6.7793,6.87305 -1.87305,1.875 -1.87305,1.875 -6.77929,-6.87305 -6.7793,-6.87305 1.87305,-1.875 1.87109,-1.875 z m 19.97656,0 6.7793,6.87305 6.7793,6.87305 -1.8711,1.875 -1.87304,1.875 -6.7793,-6.87305 -6.78125,-6.87305 1.87305,-1.875 1.87304,-1.875 z m 19.97656,0 6.7793,6.87305 6.7793,6.87305 -1.87305,1.875 -1.87305,1.875 -6.77929,-6.87305 -6.7793,-6.87305 1.87305,-1.875 1.87304,-1.875 z m 19.97657,0 6.77929,6.87305 6.7793,6.87305 -1.87305,1.875 -1.87304,1.875 -6.7793,-6.87305 -6.7793,-6.87305 1.87305,-1.875 1.87305,-1.875 z m 19.97461,0 6.77929,6.87305 6.7793,6.87305 -1.87109,1.875 -1.87305,1.875 -6.7793,-6.87305 -6.77929,-6.87305 1.87109,-1.875 1.87305,-1.875 z m 19.97656,0 6.7793,6.87305 6.77929,6.87305 -1.87304,1.875 -1.87305,1.875 -6.7793,-6.87305 -6.77929,-6.87305 1.87304,-1.875 1.87305,-1.875 z m 19.97656,0 6.7793,6.87305 6.7793,6.87305 -1.87305,1.875 -1.87305,1.875 -6.7793,-6.87305 -6.77929,-6.87305 1.87305,-1.875 1.87304,-1.875 z m -279.83789,10 1.88672,1.88868 1.88672,1.89062 -6.93164,6.93945 -6.92969,6.9375 -1.67383,-2.01757 -1.67383,-2.01954 6.7168,-6.81054 6.71875,-6.8086 z m 19.97461,0 1.88867,1.88868 1.88672,1.89062 -6.93164,6.93945 -6.92969,6.9375 -1.67382,-2.01757 -1.67383,-2.01954 6.71679,-6.81054 6.7168,-6.8086 z m 19.97656,0 1.88672,1.88868 1.88672,1.89062 -6.92969,6.93945 -6.93164,6.9375 -1.67383,-2.01757 -1.67187,-2.01954 6.7168,-6.81054 6.71679,-6.8086 z m 19.97657,0 1.88671,1.88868 1.88672,1.89062 -6.92968,6.93945 -6.93164,6.9375 -1.67383,-2.01757 -1.67383,-2.01954 6.7168,-6.81054 6.71875,-6.8086 z m 19.97461,0 1.88867,1.88868 1.88672,1.89062 -6.93165,6.93945 -6.92968,6.9375 -1.67383,-2.01757 -1.67383,-2.01954 6.7168,-6.81054 6.7168,-6.8086 z m 19.97656,0 1.88672,1.88868 1.88867,1.89062 -6.93164,6.93945 -6.93164,6.9375 -1.67188,-2.01757 -1.67383,-2.01954 6.7168,-6.81054 6.7168,-6.8086 z m 19.97656,0 1.88672,1.88868 1.88672,1.89062 -6.92969,6.93945 -6.93164,6.9375 -1.67383,-2.01757 -1.67383,-2.01954 6.71875,-6.81054 6.7168,-6.8086 z m 19.97461,0 1.88867,1.88868 1.88672,1.89062 -6.93164,6.93945 -6.92969,6.9375 -1.67383,-2.01757 -1.67382,-2.01954 6.71679,-6.81054 6.7168,-6.8086 z m 19.97656,0 1.88672,1.88868 1.88867,1.89062 -6.93164,6.93945 -6.92969,6.9375 -1.67382,-2.01757 -1.67383,-2.01954 6.7168,-6.81054 6.71679,-6.8086 z m 19.97656,0 1.88672,1.88868 1.88672,1.89062 -6.92969,6.93945 -6.93164,6.9375 -1.67382,-2.01757 -1.67383,-2.01954 6.71875,-6.81054 6.71679,-6.8086 z m 19.97657,0 1.88672,1.88868 1.88671,1.89062 -6.93164,6.93945 -6.92968,6.9375 -1.67383,-2.01757 -1.67383,-2.01954 6.7168,-6.81054 6.71875,-6.8086 z m 19.97461,0 1.88867,1.88868 1.88672,1.89062 -6.93164,6.93945 -6.92969,6.9375 -1.67383,-2.01757 -1.67383,-2.01954 6.7168,-6.81054 6.7168,-6.8086 z m 19.97656,0 1.88672,1.88868 1.88672,1.89062 -6.92969,6.93945 -6.93164,6.9375 -1.67383,-2.01757 -1.67187,-2.01954 6.71679,-6.81054 6.7168,-6.8086 z m 19.97656,0 1.88672,1.88868 1.88672,1.89062 -6.92969,6.93945 -6.93164,6.9375 -1.67383,-2.01757 -1.67383,-2.01954 6.7168,-6.81054 6.71875,-6.8086 z m 19.97461,0 1.88867,1.88868 1.88672,1.89062 -6.93164,6.93945 -6.92969,6.9375 -1.67382,-2.01757 -1.67383,-2.01954 6.71679,-6.81054 6.7168,-6.8086 z m -279.48828,10 6.7793,6.87305 6.77929,6.87305 -1.87304,1.875 -1.87305,1.875 -6.7793,-6.87305 -6.77929,-6.87305 1.87304,-1.875 1.87305,-1.875 z m 19.97656,0 6.7793,6.87305 6.7793,6.87305 -1.87305,1.875 -1.87305,1.875 -6.7793,-6.87305 -6.77929,-6.87305 1.87305,-1.875 1.87304,-1.875 z m 19.97461,0 6.7793,6.87305 6.77929,6.87305 -1.87109,1.875 -1.87305,1.875 -6.77929,-6.87305 -6.7793,-6.87305 1.87109,-1.875 1.87305,-1.875 z m 19.97656,0 6.7793,6.87305 6.7793,6.87305 -1.87305,1.875 -1.87305,1.875 -6.77929,-6.87305 -6.7793,-6.87305 1.87305,-1.875 1.87304,-1.875 z m 19.97657,0 6.77929,6.87305 6.7793,6.87305 -1.87305,1.875 -1.87304,1.875 -6.7793,-6.87305 -6.7793,-6.87305 1.87305,-1.875 1.87305,-1.875 z m 19.97461,0 6.77929,6.87305 6.78125,6.87305 -1.87304,1.875 -1.87305,1.875 -6.7793,-6.87305 -6.7793,-6.87305 1.8711,-1.875 1.87305,-1.875 z m 19.97656,0 6.77929,6.87305 6.7793,6.87305 -1.87304,1.875 -1.8711,1.875 -6.78125,-6.87305 -6.7793,-6.87305 1.87305,-1.875 1.87305,-1.875 z m 19.97656,0 6.7793,6.87305 6.77929,6.87305 -1.87304,1.875 -1.87305,1.875 -6.7793,-6.87305 -6.77929,-6.87305 1.87304,-1.875 1.87305,-1.875 z m 19.97461,0 6.78125,6.87305 6.7793,6.87305 -1.87305,1.875 -1.87305,1.875 -6.77929,-6.87305 -6.7793,-6.87305 1.87305,-1.875 1.87109,-1.875 z m 19.97656,0 6.7793,6.87305 6.7793,6.87305 -1.8711,1.875 -1.87304,1.875 -6.7793,-6.87305 -6.78125,-6.87305 1.87305,-1.875 1.87304,-1.875 z m 19.97656,0 6.7793,6.87305 6.7793,6.87305 -1.87305,1.875 -1.87305,1.875 -6.77929,-6.87305 -6.7793,-6.87305 1.87305,-1.875 1.87304,-1.875 z m 19.97657,0 6.77929,6.87305 6.7793,6.87305 -1.87305,1.875 -1.87304,1.875 -6.7793,-6.87305 -6.7793,-6.87305 1.87305,-1.875 1.87305,-1.875 z m 19.97461,0 6.77929,6.87305 6.7793,6.87305 -1.87109,1.875 -1.87305,1.875 -6.7793,-6.87305 -6.77929,-6.87305 1.87109,-1.875 1.87305,-1.875 z m 19.97656,0 6.7793,6.87305 6.77929,6.87305 -1.87304,1.875 -1.87305,1.875 -6.7793,-6.87305 -6.77929,-6.87305 1.87304,-1.875 1.87305,-1.875 z m 19.97656,0 6.7793,6.87305 6.7793,6.87305 -1.87305,1.875 -1.87305,1.875 -6.7793,-6.87305 -6.77929,-6.87305 1.87305,-1.875 1.87304,-1.875 z m -279.83789,10 1.88672,1.88868 1.88672,1.89062 -6.93164,6.93945 -6.92969,6.9375 -1.67383,-2.01757 -1.67383,-2.01954 6.7168,-6.81054 6.71875,-6.8086 z m 19.97461,0 1.88867,1.88868 1.88672,1.89062 -6.93164,6.93945 -6.92969,6.9375 -1.67382,-2.01757 -1.67383,-2.01954 6.71679,-6.81054 6.7168,-6.8086 z m 19.97656,0 1.88672,1.88868 1.88672,1.89062 -6.92969,6.93945 -6.93164,6.9375 -1.67383,-2.01757 -1.67187,-2.01954 6.7168,-6.81054 6.71679,-6.8086 z m 19.97657,0 1.88671,1.88868 1.88672,1.89062 -6.92968,6.93945 -6.93164,6.9375 -1.67383,-2.01757 -1.67383,-2.01954 6.7168,-6.81054 6.71875,-6.8086 z m 19.97461,0 1.88867,1.88868 1.88672,1.89062 -6.93165,6.93945 -6.92968,6.9375 -1.67383,-2.01757 -1.67383,-2.01954 6.7168,-6.81054 6.7168,-6.8086 z m 19.97656,0 1.88672,1.88868 1.88867,1.89062 -6.93164,6.93945 -6.93164,6.9375 -1.67188,-2.01757 -1.67383,-2.01954 6.7168,-6.81054 6.7168,-6.8086 z m 19.97656,0 1.88672,1.88868 1.88672,1.89062 -6.92969,6.93945 -6.93164,6.9375 -1.67383,-2.01757 -1.67383,-2.01954 6.71875,-6.81054 6.7168,-6.8086 z m 19.97461,0 1.88867,1.88868 1.88672,1.89062 -6.93164,6.93945 -6.92969,6.9375 -1.67383,-2.01757 -1.67382,-2.01954 6.71679,-6.81054 6.7168,-6.8086 z m 19.97656,0 1.88672,1.88868 1.88867,1.89062 -6.93164,6.93945 -6.92969,6.9375 -1.67382,-2.01757 -1.67383,-2.01954 6.7168,-6.81054 6.71679,-6.8086 z m 19.97656,0 1.88672,1.88868 1.88672,1.89062 -6.92969,6.93945 -6.93164,6.9375 -1.67382,-2.01757 -1.67383,-2.01954 6.71875,-6.81054 6.71679,-6.8086 z m 19.97657,0 1.88672,1.88868 1.88671,1.89062 -6.93164,6.93945 -6.92968,6.9375 -1.67383,-2.01757 -1.67383,-2.01954 6.7168,-6.81054 6.71875,-6.8086 z m 19.97461,0 1.88867,1.88868 1.88672,1.89062 -6.93164,6.93945 -6.92969,6.9375 -1.67383,-2.01757 -1.67383,-2.01954 6.7168,-6.81054 6.7168,-6.8086 z m 19.97656,0 1.88672,1.88868 1.88672,1.89062 -6.92969,6.93945 -6.93164,6.9375 -1.67383,-2.01757 -1.67187,-2.01954 6.71679,-6.81054 6.7168,-6.8086 z m 19.97656,0 1.88672,1.88868 1.88672,1.89062 -6.92969,6.93945 -6.93164,6.9375 -1.67383,-2.01757 -1.67383,-2.01954 6.7168,-6.81054 6.71875,-6.8086 z m 19.97461,0 1.88867,1.88868 1.88672,1.89062 -6.93164,6.93945 -6.92969,6.9375 -1.67382,-2.01757 -1.67383,-2.01954 6.71679,-6.81054 6.7168,-6.8086 z m -279.48828,10 6.7793,6.87305 6.77929,6.87305 -1.87304,1.875 -1.87305,1.875 -6.7793,-6.87305 -6.77929,-6.87305 1.87304,-1.875 1.87305,-1.875 z m 19.97656,0 6.7793,6.87305 6.7793,6.87305 -1.87305,1.875 -1.87305,1.875 -6.7793,-6.87305 -6.77929,-6.87305 1.87305,-1.875 1.87304,-1.875 z m 19.97461,0 6.7793,6.87305 6.77929,6.87305 -1.87109,1.875 -1.87305,1.875 -6.77929,-6.87305 -6.7793,-6.87305 1.87109,-1.875 1.87305,-1.875 z m 19.97656,0 6.7793,6.87305 6.7793,6.87305 -1.87305,1.875 -1.87305,1.875 -6.77929,-6.87305 -6.7793,-6.87305 1.87305,-1.875 1.87304,-1.875 z m 19.97657,0 6.77929,6.87305 6.7793,6.87305 -1.87305,1.875 -1.87304,1.875 -6.7793,-6.87305 -6.7793,-6.87305 1.87305,-1.875 1.87305,-1.875 z m 19.97461,0 6.77929,6.87305 6.78125,6.87305 -1.87304,1.875 -1.87305,1.875 -6.7793,-6.87305 -6.7793,-6.87305 1.8711,-1.875 1.87305,-1.875 z m 19.97656,0 6.77929,6.87305 6.7793,6.87305 -1.87304,1.875 -1.8711,1.875 -6.78125,-6.87305 -6.7793,-6.87305 1.87305,-1.875 1.87305,-1.875 z m 19.97656,0 6.7793,6.87305 6.77929,6.87305 -1.87304,1.875 -1.87305,1.875 -6.7793,-6.87305 -6.77929,-6.87305 1.87304,-1.875 1.87305,-1.875 z m 19.97461,0 6.78125,6.87305 6.7793,6.87305 -1.87305,1.875 -1.87305,1.875 -6.77929,-6.87305 -6.7793,-6.87305 1.87305,-1.875 1.87109,-1.875 z m 19.97656,0 6.7793,6.87305 6.7793,6.87305 -1.8711,1.875 -1.87304,1.875 -6.7793,-6.87305 -6.78125,-6.87305 1.87305,-1.875 1.87304,-1.875 z m 19.97656,0 6.7793,6.87305 6.7793,6.87305 -1.87305,1.875 -1.87305,1.875 -6.77929,-6.87305 -6.7793,-6.87305 1.87305,-1.875 1.87304,-1.875 z m 19.97657,0 6.77929,6.87305 6.7793,6.87305 -1.87305,1.875 -1.87304,1.875 -6.7793,-6.87305 -6.7793,-6.87305 1.87305,-1.875 1.87305,-1.875 z m 19.97461,0 6.77929,6.87305 6.7793,6.87305 -1.87109,1.875 -1.87305,1.875 -6.7793,-6.87305 -6.77929,-6.87305 1.87109,-1.875 1.87305,-1.875 z m 19.97656,0 6.7793,6.87305 6.77929,6.87305 -1.87304,1.875 -1.87305,1.875 -6.7793,-6.87305 -6.77929,-6.87305 1.87304,-1.875 1.87305,-1.875 z m 19.97656,0 6.7793,6.87305 6.7793,6.87305 -1.87305,1.875 -1.87305,1.875 -6.7793,-6.87305 -6.77929,-6.87305 1.87305,-1.875 1.87304,-1.875 z m -279.83789,10 1.88672,1.88868 1.88672,1.89062 -6.93164,6.93945 -6.92969,6.9375 -1.67383,-2.01757 -1.67383,-2.01954 6.7168,-6.81054 6.71875,-6.8086 z m 19.97461,0 1.88867,1.88868 1.88672,1.89062 -6.93164,6.93945 -6.92969,6.9375 -1.67382,-2.01757 -1.67383,-2.01954 6.71679,-6.81054 6.7168,-6.8086 z m 19.97656,0 1.88672,1.88868 1.88672,1.89062 -6.92969,6.93945 -6.93164,6.9375 -1.67383,-2.01757 -1.67187,-2.01954 6.7168,-6.81054 6.71679,-6.8086 z m 19.97657,0 1.88671,1.88868 1.88672,1.89062 -6.92968,6.93945 -6.93164,6.9375 -1.67383,-2.01757 -1.67383,-2.01954 6.7168,-6.81054 6.71875,-6.8086 z m 19.97461,0 1.88867,1.88868 1.88672,1.89062 -6.93165,6.93945 -6.92968,6.9375 -1.67383,-2.01757 -1.67383,-2.01954 6.7168,-6.81054 6.7168,-6.8086 z m 19.97656,0 1.88672,1.88868 1.88867,1.89062 -6.93164,6.93945 -6.93164,6.9375 -1.67188,-2.01757 -1.67383,-2.01954 6.7168,-6.81054 6.7168,-6.8086 z m 19.97656,0 1.88672,1.88868 1.88672,1.89062 -6.92969,6.93945 -6.93164,6.9375 -1.67383,-2.01757 -1.67383,-2.01954 6.71875,-6.81054 6.7168,-6.8086 z m 19.97461,0 1.88867,1.88868 1.88672,1.89062 -6.93164,6.93945 -6.92969,6.9375 -1.67383,-2.01757 -1.67382,-2.01954 6.71679,-6.81054 6.7168,-6.8086 z m 19.97656,0 1.88672,1.88868 1.88867,1.89062 -6.93164,6.93945 -6.92969,6.9375 -1.67382,-2.01757 -1.67383,-2.01954 6.7168,-6.81054 6.71679,-6.8086 z m 19.97656,0 1.88672,1.88868 1.88672,1.89062 -6.92969,6.93945 -6.93164,6.9375 -1.67382,-2.01757 -1.67383,-2.01954 6.71875,-6.81054 6.71679,-6.8086 z m 19.97657,0 1.88672,1.88868 1.88671,1.89062 -6.93164,6.93945 -6.92968,6.9375 -1.67383,-2.01757 -1.67383,-2.01954 6.7168,-6.81054 6.71875,-6.8086 z m 19.97461,0 1.88867,1.88868 1.88672,1.89062 -6.93164,6.93945 -6.92969,6.9375 -1.67383,-2.01757 -1.67383,-2.01954 6.7168,-6.81054 6.7168,-6.8086 z m 19.97656,0 1.88672,1.88868 1.88672,1.89062 -6.92969,6.93945 -6.93164,6.9375 -1.67383,-2.01757 -1.67187,-2.01954 6.71679,-6.81054 6.7168,-6.8086 z m 19.97656,0 1.88672,1.88868 1.88672,1.89062 -6.92969,6.93945 -6.93164,6.9375 -1.67383,-2.01757 -1.67383,-2.01954 6.7168,-6.81054 6.71875,-6.8086 z m 19.97461,0 1.88867,1.88868 1.88672,1.89062 -6.93164,6.93945 -6.92969,6.9375 -1.67382,-2.01757 -1.67383,-2.01954 6.71679,-6.81054 6.7168,-6.8086 z m -279.48828,10 6.7793,6.87305 6.77929,6.87305 -1.87304,1.875 -1.87305,1.875 -6.7793,-6.87305 -6.77929,-6.87305 1.87304,-1.875 1.87305,-1.875 z m 19.97656,0 6.7793,6.87305 6.7793,6.87305 -1.87305,1.875 -1.87305,1.875 -6.7793,-6.87305 -6.77929,-6.87305 1.87305,-1.875 1.87304,-1.875 z m 19.97461,0 6.7793,6.87305 6.77929,6.87305 -1.87109,1.875 -1.87305,1.875 -6.77929,-6.87305 -6.7793,-6.87305 1.87109,-1.875 1.87305,-1.875 z m 19.97656,0 6.7793,6.87305 6.7793,6.87305 -1.87305,1.875 -1.87305,1.875 -6.77929,-6.87305 -6.7793,-6.87305 1.87305,-1.875 1.87304,-1.875 z m 19.97657,0 6.77929,6.87305 6.7793,6.87305 -1.87305,1.875 -1.87304,1.875 -6.7793,-6.87305 -6.7793,-6.87305 1.87305,-1.875 1.87305,-1.875 z m 19.97461,0 6.77929,6.87305 6.78125,6.87305 -1.87304,1.875 -1.87305,1.875 -6.7793,-6.87305 -6.7793,-6.87305 1.8711,-1.875 1.87305,-1.875 z m 19.97656,0 6.77929,6.87305 6.7793,6.87305 -1.87304,1.875 -1.8711,1.875 -6.78125,-6.87305 -6.7793,-6.87305 1.87305,-1.875 1.87305,-1.875 z m 19.97656,0 6.7793,6.87305 6.77929,6.87305 -1.87304,1.875 -1.87305,1.875 -6.7793,-6.87305 -6.77929,-6.87305 1.87304,-1.875 1.87305,-1.875 z m 19.97461,0 6.78125,6.87305 6.7793,6.87305 -1.87305,1.875 -1.87305,1.875 -6.77929,-6.87305 -6.7793,-6.87305 1.87305,-1.875 1.87109,-1.875 z m 19.97656,0 6.7793,6.87305 6.7793,6.87305 -1.8711,1.875 -1.87304,1.875 -6.7793,-6.87305 -6.78125,-6.87305 1.87305,-1.875 1.87304,-1.875 z m 19.97656,0 6.7793,6.87305 6.7793,6.87305 -1.87305,1.875 -1.87305,1.875 -6.77929,-6.87305 -6.7793,-6.87305 1.87305,-1.875 1.87304,-1.875 z m 19.97657,0 6.77929,6.87305 6.7793,6.87305 -1.87305,1.875 -1.87304,1.875 -6.7793,-6.87305 -6.7793,-6.87305 1.87305,-1.875 1.87305,-1.875 z m 19.97461,0 6.77929,6.87305 6.7793,6.87305 -1.87109,1.875 -1.87305,1.875 -6.7793,-6.87305 -6.77929,-6.87305 1.87109,-1.875 1.87305,-1.875 z m 19.97656,0 6.7793,6.87305 6.77929,6.87305 -1.87304,1.875 -1.87305,1.875 -6.7793,-6.87305 -6.77929,-6.87305 1.87304,-1.875 1.87305,-1.875 z m 19.97656,0 6.7793,6.87305 6.7793,6.87305 -1.87305,1.875 -1.87305,1.875 -6.7793,-6.87305 -6.77929,-6.87305 1.87305,-1.875 1.87304,-1.875 z m -279.83789,10 1.88672,1.88868 1.88672,1.89062 -6.93164,6.93945 -6.92969,6.9375 -1.67383,-2.01757 -1.67383,-2.01954 6.7168,-6.81054 6.71875,-6.8086 z m 19.97461,0 1.88867,1.88868 1.88672,1.89062 -6.93164,6.93945 -6.92969,6.9375 -1.67382,-2.01757 -1.67383,-2.01954 6.71679,-6.81054 6.7168,-6.8086 z m 19.97656,0 1.88672,1.88868 1.88672,1.89062 -6.92969,6.93945 -6.93164,6.9375 -1.67383,-2.01757 -1.67187,-2.01954 6.7168,-6.81054 6.71679,-6.8086 z m 19.97657,0 1.88671,1.88868 1.88672,1.89062 -6.92968,6.93945 -6.93164,6.9375 -1.67383,-2.01757 -1.67383,-2.01954 6.7168,-6.81054 6.71875,-6.8086 z m 19.97461,0 1.88867,1.88868 1.88672,1.89062 -6.93165,6.93945 -6.92968,6.9375 -1.67383,-2.01757 -1.67383,-2.01954 6.7168,-6.81054 6.7168,-6.8086 z m 19.97656,0 1.88672,1.88868 1.88867,1.89062 -6.93164,6.93945 -6.93164,6.9375 -1.67188,-2.01757 -1.67383,-2.01954 6.7168,-6.81054 6.7168,-6.8086 z m 19.97656,0 1.88672,1.88868 1.88672,1.89062 -6.92969,6.93945 -6.93164,6.9375 -1.67383,-2.01757 -1.67383,-2.01954 6.71875,-6.81054 6.7168,-6.8086 z m 19.97461,0 1.88867,1.88868 1.88672,1.89062 -6.93164,6.93945 -6.92969,6.9375 -1.67383,-2.01757 -1.67382,-2.01954 6.71679,-6.81054 6.7168,-6.8086 z m 19.97656,0 1.88672,1.88868 1.88867,1.89062 -6.93164,6.93945 -6.92969,6.9375 -1.67382,-2.01757 -1.67383,-2.01954 6.7168,-6.81054 6.71679,-6.8086 z m 19.97656,0 1.88672,1.88868 1.88672,1.89062 -6.92969,6.93945 -6.93164,6.9375 -1.67382,-2.01757 -1.67383,-2.01954 6.71875,-6.81054 6.71679,-6.8086 z m 19.97657,0 1.88672,1.88868 1.88671,1.89062 -6.93164,6.93945 -6.92968,6.9375 -1.67383,-2.01757 -1.67383,-2.01954 6.7168,-6.81054 6.71875,-6.8086 z m 19.97461,0 1.88867,1.88868 1.88672,1.89062 -6.93164,6.93945 -6.92969,6.9375 -1.67383,-2.01757 -1.67383,-2.01954 6.7168,-6.81054 6.7168,-6.8086 z m 19.97656,0 1.88672,1.88868 1.88672,1.89062 -6.92969,6.93945 -6.93164,6.9375 -1.67383,-2.01757 -1.67187,-2.01954 6.71679,-6.81054 6.7168,-6.8086 z m 19.97656,0 1.88672,1.88868 1.88672,1.89062 -6.92969,6.93945 -6.93164,6.9375 -1.67383,-2.01757 -1.67383,-2.01954 6.7168,-6.81054 6.71875,-6.8086 z m 19.97461,0 1.88867,1.88868 1.88672,1.89062 -6.93164,6.93945 -6.92969,6.9375 -1.67382,-2.01757 -1.67383,-2.01954 6.71679,-6.81054 6.7168,-6.8086 z m -279.48828,10 6.7793,6.87305 6.77929,6.87305 -1.87304,1.875 -1.87305,1.875 -6.7793,-6.87305 -6.77929,-6.87305 1.87304,-1.875 1.87305,-1.875 z m 19.97656,0 6.7793,6.87305 6.7793,6.87305 -1.87305,1.875 -1.87305,1.875 -6.7793,-6.87305 -6.77929,-6.87305 1.87305,-1.875 1.87304,-1.875 z m 19.97461,0 6.7793,6.87305 6.77929,6.87305 -1.87109,1.875 -1.87305,1.875 -6.77929,-6.87305 -6.7793,-6.87305 1.87109,-1.875 1.87305,-1.875 z m 19.97656,0 6.7793,6.87305 6.7793,6.87305 -1.87305,1.875 -1.87305,1.875 -6.77929,-6.87305 -6.7793,-6.87305 1.87305,-1.875 1.87304,-1.875 z m 19.97657,0 6.77929,6.87305 6.7793,6.87305 -1.87305,1.875 -1.87304,1.875 -6.7793,-6.87305 -6.7793,-6.87305 1.87305,-1.875 1.87305,-1.875 z m 19.97461,0 6.77929,6.87305 6.78125,6.87305 -1.87304,1.875 -1.87305,1.875 -6.7793,-6.87305 -6.7793,-6.87305 1.8711,-1.875 1.87305,-1.875 z m 19.97656,0 6.77929,6.87305 6.7793,6.87305 -1.87304,1.875 -1.8711,1.875 -6.78125,-6.87305 -6.7793,-6.87305 1.87305,-1.875 1.87305,-1.875 z m 19.97656,0 6.7793,6.87305 6.77929,6.87305 -1.87304,1.875 -1.87305,1.875 -6.7793,-6.87305 -6.77929,-6.87305 1.87304,-1.875 1.87305,-1.875 z m 19.97461,0 6.78125,6.87305 6.7793,6.87305 -1.87305,1.875 -1.87305,1.875 -6.77929,-6.87305 -6.7793,-6.87305 1.87305,-1.875 1.87109,-1.875 z m 19.97656,0 6.7793,6.87305 6.7793,6.87305 -1.8711,1.875 -1.87304,1.875 -6.7793,-6.87305 -6.78125,-6.87305 1.87305,-1.875 1.87304,-1.875 z m 19.97656,0 6.7793,6.87305 6.7793,6.87305 -1.87305,1.875 -1.87305,1.875 -6.77929,-6.87305 -6.7793,-6.87305 1.87305,-1.875 1.87304,-1.875 z m 19.97657,0 6.77929,6.87305 6.7793,6.87305 -1.87305,1.875 -1.87304,1.875 -6.7793,-6.87305 -6.7793,-6.87305 1.87305,-1.875 1.87305,-1.875 z m 19.97461,0 6.77929,6.87305 6.7793,6.87305 -1.87109,1.875 -1.87305,1.875 -6.7793,-6.87305 -6.77929,-6.87305 1.87109,-1.875 1.87305,-1.875 z m 19.97656,0 6.7793,6.87305 6.77929,6.87305 -1.87304,1.875 -1.87305,1.875 -6.7793,-6.87305 -6.77929,-6.87305 1.87304,-1.875 1.87305,-1.875 z m 19.97656,0 6.7793,6.87305 6.7793,6.87305 -1.87305,1.875 -1.87305,1.875 -6.7793,-6.87305 -6.77929,-6.87305 1.87305,-1.875 1.87304,-1.875 z m -279.83789,10 1.88672,1.88868 1.88672,1.89062 -6.93164,6.93945 -6.92969,6.9375 -1.67383,-2.01757 -1.67383,-2.01954 6.7168,-6.81054 6.71875,-6.8086 z m 19.97461,0 1.88867,1.88868 1.88672,1.89062 -6.93164,6.93945 -6.92969,6.9375 -1.67382,-2.01757 -1.67383,-2.01954 6.71679,-6.81054 6.7168,-6.8086 z m 19.97656,0 1.88672,1.88868 1.88672,1.89062 -6.92969,6.93945 -6.93164,6.9375 -1.67383,-2.01757 -1.67187,-2.01954 6.7168,-6.81054 6.71679,-6.8086 z m 19.97657,0 1.88671,1.88868 1.88672,1.89062 -6.92968,6.93945 -6.93164,6.9375 -1.67383,-2.01757 -1.67383,-2.01954 6.7168,-6.81054 6.71875,-6.8086 z m 19.97461,0 1.88867,1.88868 1.88672,1.89062 -6.93165,6.93945 -6.92968,6.9375 -1.67383,-2.01757 -1.67383,-2.01954 6.7168,-6.81054 6.7168,-6.8086 z m 19.97656,0 1.88672,1.88868 1.88867,1.89062 -6.93164,6.93945 -6.93164,6.9375 -1.67188,-2.01757 -1.67383,-2.01954 6.7168,-6.81054 6.7168,-6.8086 z m 19.97656,0 1.88672,1.88868 1.88672,1.89062 -6.92969,6.93945 -6.93164,6.9375 -1.67383,-2.01757 -1.67383,-2.01954 6.71875,-6.81054 6.7168,-6.8086 z m 19.97461,0 1.88867,1.88868 1.88672,1.89062 -6.93164,6.93945 -6.92969,6.9375 -1.67383,-2.01757 -1.67382,-2.01954 6.71679,-6.81054 6.7168,-6.8086 z m 19.97656,0 1.88672,1.88868 1.88867,1.89062 -6.93164,6.93945 -6.92969,6.9375 -1.67382,-2.01757 -1.67383,-2.01954 6.7168,-6.81054 6.71679,-6.8086 z m 19.97656,0 1.88672,1.88868 1.88672,1.89062 -6.92969,6.93945 -6.93164,6.9375 -1.67382,-2.01757 -1.67383,-2.01954 6.71875,-6.81054 6.71679,-6.8086 z m 19.97657,0 1.88672,1.88868 1.88671,1.89062 -6.93164,6.93945 -6.92968,6.9375 -1.67383,-2.01757 -1.67383,-2.01954 6.7168,-6.81054 6.71875,-6.8086 z m 19.97461,0 1.88867,1.88868 1.88672,1.89062 -6.93164,6.93945 -6.92969,6.9375 -1.67383,-2.01757 -1.67383,-2.01954 6.7168,-6.81054 6.7168,-6.8086 z m 19.97656,0 1.88672,1.88868 1.88672,1.89062 -6.92969,6.93945 -6.93164,6.9375 -1.67383,-2.01757 -1.67187,-2.01954 6.71679,-6.81054 6.7168,-6.8086 z m 19.97656,0 1.88672,1.88868 1.88672,1.89062 -6.92969,6.93945 -6.93164,6.9375 -1.67383,-2.01757 -1.67383,-2.01954 6.7168,-6.81054 6.71875,-6.8086 z m 19.97461,0 1.88867,1.88868 1.88672,1.89062 -6.93164,6.93945 -6.92969,6.9375 -1.67382,-2.01757 -1.67383,-2.01954 6.71679,-6.81054 6.7168,-6.8086 z m -279.48828,10 6.7793,6.87305 6.77929,6.87305 -1.87304,1.875 -1.87305,1.875 -6.7793,-6.87305 -6.77929,-6.87305 1.87304,-1.875 1.87305,-1.875 z m 19.97656,0 6.7793,6.87305 6.7793,6.87305 -1.87305,1.875 -1.87305,1.875 -6.7793,-6.87305 -6.77929,-6.87305 1.87305,-1.875 1.87304,-1.875 z m 19.97461,0 6.7793,6.87305 6.77929,6.87305 -1.87109,1.875 -1.87305,1.875 -6.77929,-6.87305 -6.7793,-6.87305 1.87109,-1.875 1.87305,-1.875 z m 19.97656,0 6.7793,6.87305 6.7793,6.87305 -1.87305,1.875 -1.87305,1.875 -6.77929,-6.87305 -6.7793,-6.87305 1.87305,-1.875 1.87304,-1.875 z m 19.97657,0 6.77929,6.87305 6.7793,6.87305 -1.87305,1.875 -1.87304,1.875 -6.7793,-6.87305 -6.7793,-6.87305 1.87305,-1.875 1.87305,-1.875 z m 19.97461,0 6.77929,6.87305 6.78125,6.87305 -1.87304,1.875 -1.87305,1.875 -6.7793,-6.87305 -6.7793,-6.87305 1.8711,-1.875 1.87305,-1.875 z m 19.97656,0 6.77929,6.87305 6.7793,6.87305 -1.87304,1.875 -1.8711,1.875 -6.78125,-6.87305 -6.7793,-6.87305 1.87305,-1.875 1.87305,-1.875 z m 19.97656,0 6.7793,6.87305 6.77929,6.87305 -1.87304,1.875 -1.87305,1.875 -6.7793,-6.87305 -6.77929,-6.87305 1.87304,-1.875 1.87305,-1.875 z m 19.97461,0 6.78125,6.87305 6.7793,6.87305 -1.87305,1.875 -1.87305,1.875 -6.77929,-6.87305 -6.7793,-6.87305 1.87305,-1.875 1.87109,-1.875 z m 19.97656,0 6.7793,6.87305 6.7793,6.87305 -1.8711,1.875 -1.87304,1.875 -6.7793,-6.87305 -6.78125,-6.87305 1.87305,-1.875 1.87304,-1.875 z m 19.97656,0 6.7793,6.87305 6.7793,6.87305 -1.87305,1.875 -1.87305,1.875 -6.77929,-6.87305 -6.7793,-6.87305 1.87305,-1.875 1.87304,-1.875 z m 19.97657,0 6.77929,6.87305 6.7793,6.87305 -1.87305,1.875 -1.87304,1.875 -6.7793,-6.87305 -6.7793,-6.87305 1.87305,-1.875 1.87305,-1.875 z m 19.97461,0 6.77929,6.87305 6.7793,6.87305 -1.87109,1.875 -1.87305,1.875 -6.7793,-6.87305 -6.77929,-6.87305 1.87109,-1.875 1.87305,-1.875 z m 19.97656,0 6.7793,6.87305 6.77929,6.87305 -1.87304,1.875 -1.87305,1.875 -6.7793,-6.87305 -6.77929,-6.87305 1.87304,-1.875 1.87305,-1.875 z m 19.97656,0 6.7793,6.87305 6.7793,6.87305 -1.87305,1.875 -1.87305,1.875 -6.7793,-6.87305 -6.77929,-6.87305 1.87305,-1.875 1.87304,-1.875 z m -279.83789,10 1.88672,1.88868 1.88672,1.89062 -6.93164,6.93945 -6.92969,6.9375 -1.67383,-2.01757 -1.67383,-2.01954 6.7168,-6.81054 6.71875,-6.8086 z m 19.97461,0 1.88867,1.88868 1.88672,1.89062 -6.93164,6.93945 -6.92969,6.9375 -1.67382,-2.01757 -1.67383,-2.01954 6.71679,-6.81054 6.7168,-6.8086 z m 19.97656,0 1.88672,1.88868 1.88672,1.89062 -6.92969,6.93945 -6.93164,6.9375 -1.67383,-2.01757 -1.67187,-2.01954 6.7168,-6.81054 6.71679,-6.8086 z m 19.97657,0 1.88671,1.88868 1.88672,1.89062 -6.92968,6.93945 -6.93164,6.9375 -1.67383,-2.01757 -1.67383,-2.01954 6.7168,-6.81054 6.71875,-6.8086 z m 19.97461,0 1.88867,1.88868 1.88672,1.89062 -6.93165,6.93945 -6.92968,6.9375 -1.67383,-2.01757 -1.67383,-2.01954 6.7168,-6.81054 6.7168,-6.8086 z m 19.97656,0 1.88672,1.88868 1.88867,1.89062 -6.93164,6.93945 -6.93164,6.9375 -1.67188,-2.01757 -1.67383,-2.01954 6.7168,-6.81054 6.7168,-6.8086 z m 19.97656,0 1.88672,1.88868 1.88672,1.89062 -6.92969,6.93945 -6.93164,6.9375 -1.67383,-2.01757 -1.67383,-2.01954 6.71875,-6.81054 6.7168,-6.8086 z m 19.97461,0 1.88867,1.88868 1.88672,1.89062 -6.93164,6.93945 -6.92969,6.9375 -1.67383,-2.01757 -1.67382,-2.01954 6.71679,-6.81054 6.7168,-6.8086 z m 19.97656,0 1.88672,1.88868 1.88867,1.89062 -6.93164,6.93945 -6.92969,6.9375 -1.67382,-2.01757 -1.67383,-2.01954 6.7168,-6.81054 6.71679,-6.8086 z m 19.97656,0 1.88672,1.88868 1.88672,1.89062 -6.92969,6.93945 -6.93164,6.9375 -1.67382,-2.01757 -1.67383,-2.01954 6.71875,-6.81054 6.71679,-6.8086 z m 19.97657,0 1.88672,1.88868 1.88671,1.89062 -6.93164,6.93945 -6.92968,6.9375 -1.67383,-2.01757 -1.67383,-2.01954 6.7168,-6.81054 6.71875,-6.8086 z m 19.97461,0 1.88867,1.88868 1.88672,1.89062 -6.93164,6.93945 -6.92969,6.9375 -1.67383,-2.01757 -1.67383,-2.01954 6.7168,-6.81054 6.7168,-6.8086 z m 19.97656,0 1.88672,1.88868 1.88672,1.89062 -6.92969,6.93945 -6.93164,6.9375 -1.67383,-2.01757 -1.67187,-2.01954 6.71679,-6.81054 6.7168,-6.8086 z m 19.97656,0 1.88672,1.88868 1.88672,1.89062 -6.92969,6.93945 -6.93164,6.9375 -1.67383,-2.01757 -1.67383,-2.01954 6.7168,-6.81054 6.71875,-6.8086 z m 19.97461,0 1.88867,1.88868 1.88672,1.89062 -6.93164,6.93945 -6.92969,6.9375 -1.67382,-2.01757 -1.67383,-2.01954 6.71679,-6.81054 6.7168,-6.8086 z m -279.48828,10 6.7793,6.87305 6.77929,6.87305 -1.87304,1.875 -1.87305,1.875 -6.7793,-6.87305 -6.77929,-6.87305 1.87304,-1.875 1.87305,-1.875 z m 19.97656,0 6.7793,6.87305 6.7793,6.87305 -1.87305,1.875 -1.87305,1.875 -6.7793,-6.87305 -6.77929,-6.87305 1.87305,-1.875 1.87304,-1.875 z m 19.97461,0 6.7793,6.87305 6.77929,6.87305 -1.87109,1.875 -1.87305,1.875 -6.77929,-6.87305 -6.7793,-6.87305 1.87109,-1.875 1.87305,-1.875 z m 19.97656,0 6.7793,6.87305 6.7793,6.87305 -1.87305,1.875 -1.87305,1.875 -6.77929,-6.87305 -6.7793,-6.87305 1.87305,-1.875 1.87304,-1.875 z m 19.97657,0 6.77929,6.87305 6.7793,6.87305 -1.87305,1.875 -1.87304,1.875 -6.7793,-6.87305 -6.7793,-6.87305 1.87305,-1.875 1.87305,-1.875 z m 19.97461,0 6.77929,6.87305 6.78125,6.87305 -1.87304,1.875 -1.87305,1.875 -6.7793,-6.87305 -6.7793,-6.87305 1.8711,-1.875 1.87305,-1.875 z m 19.97656,0 6.77929,6.87305 6.7793,6.87305 -1.87304,1.875 -1.8711,1.875 -6.78125,-6.87305 -6.7793,-6.87305 1.87305,-1.875 1.87305,-1.875 z m 19.97656,0 6.7793,6.87305 6.77929,6.87305 -1.87304,1.875 -1.87305,1.875 -6.7793,-6.87305 -6.77929,-6.87305 1.87304,-1.875 1.87305,-1.875 z m 19.97461,0 6.78125,6.87305 6.7793,6.87305 -1.87305,1.875 -1.87305,1.875 -6.77929,-6.87305 -6.7793,-6.87305 1.87305,-1.875 1.87109,-1.875 z m 19.97656,0 6.7793,6.87305 6.7793,6.87305 -1.8711,1.875 -1.87304,1.875 -6.7793,-6.87305 -6.78125,-6.87305 1.87305,-1.875 1.87304,-1.875 z m 19.97656,0 6.7793,6.87305 6.7793,6.87305 -1.87305,1.875 -1.87305,1.875 -6.77929,-6.87305 -6.7793,-6.87305 1.87305,-1.875 1.87304,-1.875 z m 19.97657,0 6.77929,6.87305 6.7793,6.87305 -1.87305,1.875 -1.87304,1.875 -6.7793,-6.87305 -6.7793,-6.87305 1.87305,-1.875 1.87305,-1.875 z m 19.97461,0 6.77929,6.87305 6.7793,6.87305 -1.87109,1.875 -1.87305,1.875 -6.7793,-6.87305 -6.77929,-6.87305 1.87109,-1.875 1.87305,-1.875 z m 19.97656,0 6.7793,6.87305 6.77929,6.87305 -1.87304,1.875 -1.87305,1.875 -6.7793,-6.87305 -6.77929,-6.87305 1.87304,-1.875 1.87305,-1.875 z m 19.97656,0 6.7793,6.87305 6.7793,6.87305 -1.87305,1.875 -1.87305,1.875 -6.7793,-6.87305 -6.77929,-6.87305 1.87305,-1.875 1.87304,-1.875 z m -279.83789,10 1.88672,1.88868 1.88672,1.89062 -6.93164,6.93945 -6.92969,6.9375 -1.67383,-2.01757 -1.67383,-2.01954 6.7168,-6.81054 6.71875,-6.8086 z m 19.97461,0 1.88867,1.88868 1.88672,1.89062 -6.93164,6.93945 -6.92969,6.9375 -1.67382,-2.01757 -1.67383,-2.01954 6.71679,-6.81054 6.7168,-6.8086 z m 19.97656,0 1.88672,1.88868 1.88672,1.89062 -6.92969,6.93945 -6.93164,6.9375 -1.67383,-2.01757 -1.67187,-2.01954 6.7168,-6.81054 6.71679,-6.8086 z m 19.97657,0 1.88671,1.88868 1.88672,1.89062 -6.92968,6.93945 -6.93164,6.9375 -1.67383,-2.01757 -1.67383,-2.01954 6.7168,-6.81054 6.71875,-6.8086 z m 19.97461,0 1.88867,1.88868 1.88672,1.89062 -6.93165,6.93945 -6.92968,6.9375 -1.67383,-2.01757 -1.67383,-2.01954 6.7168,-6.81054 6.7168,-6.8086 z m 19.97656,0 1.88672,1.88868 1.88867,1.89062 -6.93164,6.93945 -6.93164,6.9375 -1.67188,-2.01757 -1.67383,-2.01954 6.7168,-6.81054 6.7168,-6.8086 z m 19.97656,0 1.88672,1.88868 1.88672,1.89062 -6.92969,6.93945 -6.93164,6.9375 -1.67383,-2.01757 -1.67383,-2.01954 6.71875,-6.81054 6.7168,-6.8086 z m 19.97461,0 1.88867,1.88868 1.88672,1.89062 -6.93164,6.93945 -6.92969,6.9375 -1.67383,-2.01757 -1.67382,-2.01954 6.71679,-6.81054 6.7168,-6.8086 z m 19.97656,0 1.88672,1.88868 1.88867,1.89062 -6.93164,6.93945 -6.92969,6.9375 -1.67382,-2.01757 -1.67383,-2.01954 6.7168,-6.81054 6.71679,-6.8086 z m 19.97656,0 1.88672,1.88868 1.88672,1.89062 -6.92969,6.93945 -6.93164,6.9375 -1.67382,-2.01757 -1.67383,-2.01954 6.71875,-6.81054 6.71679,-6.8086 z m 19.97657,0 1.88672,1.88868 1.88671,1.89062 -6.93164,6.93945 -6.92968,6.9375 -1.67383,-2.01757 -1.67383,-2.01954 6.7168,-6.81054 6.71875,-6.8086 z m 19.97461,0 1.88867,1.88868 1.88672,1.89062 -6.93164,6.93945 -6.92969,6.9375 -1.67383,-2.01757 -1.67383,-2.01954 6.7168,-6.81054 6.7168,-6.8086 z m 19.97656,0 1.88672,1.88868 1.88672,1.89062 -6.92969,6.93945 -6.93164,6.9375 -1.67383,-2.01757 -1.67187,-2.01954 6.71679,-6.81054 6.7168,-6.8086 z m 19.97656,0 1.88672,1.88868 1.88672,1.89062 -6.92969,6.93945 -6.93164,6.9375 -1.67383,-2.01757 -1.67383,-2.01954 6.7168,-6.81054 6.71875,-6.8086 z m 19.97461,0 1.88867,1.88868 1.88672,1.89062 -6.93164,6.93945 -6.92969,6.9375 -1.67382,-2.01757 -1.67383,-2.01954 6.71679,-6.81054 6.7168,-6.8086 z m -279.48828,10 6.7793,6.87305 6.77929,6.87305 -1.87304,1.875 -1.87305,1.875 -6.7793,-6.87305 -6.77929,-6.87305 1.87304,-1.875 1.87305,-1.875 z m 19.97656,0 6.7793,6.87305 6.7793,6.87305 -1.87305,1.875 -1.87305,1.875 -6.7793,-6.87305 -6.77929,-6.87305 1.87305,-1.875 1.87304,-1.875 z m 19.97461,0 6.7793,6.87305 6.77929,6.87305 -1.87109,1.875 -1.87305,1.875 -6.77929,-6.87305 -6.7793,-6.87305 1.87109,-1.875 1.87305,-1.875 z m 19.97656,0 6.7793,6.87305 6.7793,6.87305 -1.87305,1.875 -1.87305,1.875 -6.77929,-6.87305 -6.7793,-6.87305 1.87305,-1.875 1.87304,-1.875 z m 19.97657,0 6.77929,6.87305 6.7793,6.87305 -1.87305,1.875 -1.87304,1.875 -6.7793,-6.87305 -6.7793,-6.87305 1.87305,-1.875 1.87305,-1.875 z m 19.97461,0 6.77929,6.87305 6.78125,6.87305 -1.87304,1.875 -1.87305,1.875 -6.7793,-6.87305 -6.7793,-6.87305 1.8711,-1.875 1.87305,-1.875 z m 19.97656,0 6.77929,6.87305 6.7793,6.87305 -1.87304,1.875 -1.8711,1.875 -6.78125,-6.87305 -6.7793,-6.87305 1.87305,-1.875 1.87305,-1.875 z m 19.97656,0 6.7793,6.87305 6.77929,6.87305 -1.87304,1.875 -1.87305,1.875 -6.7793,-6.87305 -6.77929,-6.87305 1.87304,-1.875 1.87305,-1.875 z m 19.97461,0 6.78125,6.87305 6.7793,6.87305 -1.87305,1.875 -1.87305,1.875 -6.77929,-6.87305 -6.7793,-6.87305 1.87305,-1.875 1.87109,-1.875 z m 19.97656,0 6.7793,6.87305 6.7793,6.87305 -1.8711,1.875 -1.87304,1.875 -6.7793,-6.87305 -6.78125,-6.87305 1.87305,-1.875 1.87304,-1.875 z m 19.97656,0 6.7793,6.87305 6.7793,6.87305 -1.87305,1.875 -1.87305,1.875 -6.77929,-6.87305 -6.7793,-6.87305 1.87305,-1.875 1.87304,-1.875 z m 19.97657,0 6.77929,6.87305 6.7793,6.87305 -1.87305,1.875 -1.87304,1.875 -6.7793,-6.87305 -6.7793,-6.87305 1.87305,-1.875 1.87305,-1.875 z m 19.97461,0 6.77929,6.87305 6.7793,6.87305 -1.87109,1.875 -1.87305,1.875 -6.7793,-6.87305 -6.77929,-6.87305 1.87109,-1.875 1.87305,-1.875 z m 19.97656,0 6.7793,6.87305 6.77929,6.87305 -1.87304,1.875 -1.87305,1.875 -6.7793,-6.87305 -6.77929,-6.87305 1.87304,-1.875 1.87305,-1.875 z m 19.97656,0 6.7793,6.87305 6.7793,6.87305 -1.87305,1.875 -1.87305,1.875 -6.7793,-6.87305 -6.77929,-6.87305 1.87305,-1.875 1.87304,-1.875 z m -279.83789,10 1.88672,1.88868 1.88672,1.89062 -6.93164,6.93945 -6.92969,6.9375 -1.67383,-2.01757 -1.67383,-2.01954 6.7168,-6.81054 6.71875,-6.8086 z m 19.97461,0 1.88867,1.88868 1.88672,1.89062 -6.93164,6.93945 -6.92969,6.9375 -1.67382,-2.01757 -1.67383,-2.01954 6.71679,-6.81054 6.7168,-6.8086 z m 19.97656,0 1.88672,1.88868 1.88672,1.89062 -6.92969,6.93945 -6.93164,6.9375 -1.67383,-2.01757 -1.67187,-2.01954 6.7168,-6.81054 6.71679,-6.8086 z m 19.97657,0 1.88671,1.88868 1.88672,1.89062 -6.92968,6.93945 -6.93164,6.9375 -1.67383,-2.01757 -1.67383,-2.01954 6.7168,-6.81054 6.71875,-6.8086 z m 19.97461,0 1.88867,1.88868 1.88672,1.89062 -6.93165,6.93945 -6.92968,6.9375 -1.67383,-2.01757 -1.67383,-2.01954 6.7168,-6.81054 6.7168,-6.8086 z m 19.97656,0 1.88672,1.88868 1.88867,1.89062 -6.93164,6.93945 -6.93164,6.9375 -1.67188,-2.01757 -1.67383,-2.01954 6.7168,-6.81054 6.7168,-6.8086 z m 19.97656,0 1.88672,1.88868 1.88672,1.89062 -6.92969,6.93945 -6.93164,6.9375 -1.67383,-2.01757 -1.67383,-2.01954 6.71875,-6.81054 6.7168,-6.8086 z m 19.97461,0 1.88867,1.88868 1.88672,1.89062 -6.93164,6.93945 -6.92969,6.9375 -1.67383,-2.01757 -1.67382,-2.01954 6.71679,-6.81054 6.7168,-6.8086 z m 19.97656,0 1.88672,1.88868 1.88867,1.89062 -6.93164,6.93945 -6.92969,6.9375 -1.67382,-2.01757 -1.67383,-2.01954 6.7168,-6.81054 6.71679,-6.8086 z m 19.97656,0 1.88672,1.88868 1.88672,1.89062 -6.92969,6.93945 -6.93164,6.9375 -1.67382,-2.01757 -1.67383,-2.01954 6.71875,-6.81054 6.71679,-6.8086 z m 19.97657,0 1.88672,1.88868 1.88671,1.89062 -6.93164,6.93945 -6.92968,6.9375 -1.67383,-2.01757 -1.67383,-2.01954 6.7168,-6.81054 6.71875,-6.8086 z m 19.97461,0 1.88867,1.88868 1.88672,1.89062 -6.93164,6.93945 -6.92969,6.9375 -1.67383,-2.01757 -1.67383,-2.01954 6.7168,-6.81054 6.7168,-6.8086 z m 19.97656,0 1.88672,1.88868 1.88672,1.89062 -6.92969,6.93945 -6.93164,6.9375 -1.67383,-2.01757 -1.67187,-2.01954 6.71679,-6.81054 6.7168,-6.8086 z m 19.97656,0 1.88672,1.88868 1.88672,1.89062 -6.92969,6.93945 -6.93164,6.9375 -1.67383,-2.01757 -1.67383,-2.01954 6.7168,-6.81054 6.71875,-6.8086 z m 19.97461,0 1.88867,1.88868 1.88672,1.89062 -6.93164,6.93945 -6.92969,6.9375 -1.67382,-2.01757 -1.67383,-2.01954 6.71679,-6.81054 6.7168,-6.8086 z m -279.48828,10 6.7793,6.87305 6.77929,6.87305 -1.87304,1.875 -1.87305,1.875 -6.7793,-6.87305 -6.77929,-6.87305 1.87304,-1.875 1.87305,-1.875 z m 19.97656,0 6.7793,6.87305 6.7793,6.87305 -1.87305,1.875 -1.87305,1.875 -6.7793,-6.87305 -6.77929,-6.87305 1.87305,-1.875 1.87304,-1.875 z m 19.97461,0 6.7793,6.87305 6.77929,6.87305 -1.87109,1.875 -1.87305,1.875 -6.77929,-6.87305 -6.7793,-6.87305 1.87109,-1.875 1.87305,-1.875 z m 19.97656,0 6.7793,6.87305 6.7793,6.87305 -1.87305,1.875 -1.87305,1.875 -6.77929,-6.87305 -6.7793,-6.87305 1.87305,-1.875 1.87304,-1.875 z m 19.97657,0 6.77929,6.87305 6.7793,6.87305 -1.87305,1.875 -1.87304,1.875 -6.7793,-6.87305 -6.7793,-6.87305 1.87305,-1.875 1.87305,-1.875 z m 19.97461,0 6.77929,6.87305 6.78125,6.87305 -1.87304,1.875 -1.87305,1.875 -6.7793,-6.87305 -6.7793,-6.87305 1.8711,-1.875 1.87305,-1.875 z m 19.97656,0 6.77929,6.87305 6.7793,6.87305 -1.87304,1.875 -1.8711,1.875 -6.78125,-6.87305 -6.7793,-6.87305 1.87305,-1.875 1.87305,-1.875 z m 19.97656,0 6.7793,6.87305 6.77929,6.87305 -1.87304,1.875 -1.87305,1.875 -6.7793,-6.87305 -6.77929,-6.87305 1.87304,-1.875 1.87305,-1.875 z m 19.97461,0 6.78125,6.87305 6.7793,6.87305 -1.87305,1.875 -1.87305,1.875 -6.77929,-6.87305 -6.7793,-6.87305 1.87305,-1.875 1.87109,-1.875 z m 19.97656,0 6.7793,6.87305 6.7793,6.87305 -1.8711,1.875 -1.87304,1.875 -6.7793,-6.87305 -6.78125,-6.87305 1.87305,-1.875 1.87304,-1.875 z m 19.97656,0 6.7793,6.87305 6.7793,6.87305 -1.87305,1.875 -1.87305,1.875 -6.77929,-6.87305 -6.7793,-6.87305 1.87305,-1.875 1.87304,-1.875 z m 19.97657,0 6.77929,6.87305 6.7793,6.87305 -1.87305,1.875 -1.87304,1.875 -6.7793,-6.87305 -6.7793,-6.87305 1.87305,-1.875 1.87305,-1.875 z m 19.97461,0 6.77929,6.87305 6.7793,6.87305 -1.87109,1.875 -1.87305,1.875 -6.7793,-6.87305 -6.77929,-6.87305 1.87109,-1.875 1.87305,-1.875 z m 19.97656,0 6.7793,6.87305 6.77929,6.87305 -1.87304,1.875 -1.87305,1.875 -6.7793,-6.87305 -6.77929,-6.87305 1.87304,-1.875 1.87305,-1.875 z m 19.97656,0 6.7793,6.87305 6.7793,6.87305 -1.87305,1.875 -1.87305,1.875 -6.7793,-6.87305 -6.77929,-6.87305 1.87305,-1.875 1.87304,-1.875 z m -279.83789,10 1.88672,1.88868 1.88672,1.89062 -6.93164,6.93945 -6.92969,6.9375 -1.67383,-2.01757 -1.67383,-2.01954 6.7168,-6.81054 6.71875,-6.8086 z m 19.97461,0 1.88867,1.88868 1.88672,1.89062 -6.93164,6.93945 -6.92969,6.9375 -1.67382,-2.01757 -1.67383,-2.01954 6.71679,-6.81054 6.7168,-6.8086 z m 19.97656,0 1.88672,1.88868 1.88672,1.89062 -6.92969,6.93945 -6.93164,6.9375 -1.67383,-2.01757 -1.67187,-2.01954 6.7168,-6.81054 6.71679,-6.8086 z m 19.97657,0 1.88671,1.88868 1.88672,1.89062 -6.92968,6.93945 -6.93164,6.9375 -1.67383,-2.01757 -1.67383,-2.01954 6.7168,-6.81054 6.71875,-6.8086 z m 19.97461,0 1.88867,1.88868 1.88672,1.89062 -6.93165,6.93945 -6.92968,6.9375 -1.67383,-2.01757 -1.67383,-2.01954 6.7168,-6.81054 6.7168,-6.8086 z m 19.97656,0 1.88672,1.88868 1.88867,1.89062 -6.93164,6.93945 -6.93164,6.9375 -1.67188,-2.01757 -1.67383,-2.01954 6.7168,-6.81054 6.7168,-6.8086 z m 19.97656,0 1.88672,1.88868 1.88672,1.89062 -6.92969,6.93945 -6.93164,6.9375 -1.67383,-2.01757 -1.67383,-2.01954 6.71875,-6.81054 6.7168,-6.8086 z m 19.97461,0 1.88867,1.88868 1.88672,1.89062 -6.93164,6.93945 -6.92969,6.9375 -1.67383,-2.01757 -1.67382,-2.01954 6.71679,-6.81054 6.7168,-6.8086 z m 19.97656,0 1.88672,1.88868 1.88867,1.89062 -6.93164,6.93945 -6.92969,6.9375 -1.67382,-2.01757 -1.67383,-2.01954 6.7168,-6.81054 6.71679,-6.8086 z m 19.97656,0 1.88672,1.88868 1.88672,1.89062 -6.92969,6.93945 -6.93164,6.9375 -1.67382,-2.01757 -1.67383,-2.01954 6.71875,-6.81054 6.71679,-6.8086 z m 19.97657,0 1.88672,1.88868 1.88671,1.89062 -6.93164,6.93945 -6.92968,6.9375 -1.67383,-2.01757 -1.67383,-2.01954 6.7168,-6.81054 6.71875,-6.8086 z m 19.97461,0 1.88867,1.88868 1.88672,1.89062 -6.93164,6.93945 -6.92969,6.9375 -1.67383,-2.01757 -1.67383,-2.01954 6.7168,-6.81054 6.7168,-6.8086 z m 19.97656,0 1.88672,1.88868 1.88672,1.89062 -6.92969,6.93945 -6.93164,6.9375 -1.67383,-2.01757 -1.67187,-2.01954 6.71679,-6.81054 6.7168,-6.8086 z m 19.97656,0 1.88672,1.88868 1.88672,1.89062 -6.92969,6.93945 -6.93164,6.9375 -1.67383,-2.01757 -1.67383,-2.01954 6.7168,-6.81054 6.71875,-6.8086 z m 19.97461,0 1.88867,1.88868 1.88672,1.89062 -6.93164,6.93945 -6.92969,6.9375 -1.67382,-2.01757 -1.67383,-2.01954 6.71679,-6.81054 6.7168,-6.8086 z m -279.48828,10 6.7793,6.87305 6.77929,6.87305 -1.87304,1.875 -1.87305,1.875 -6.7793,-6.87305 -6.77929,-6.87305 1.87304,-1.875 1.87305,-1.875 z m 19.97656,0 6.7793,6.87305 6.7793,6.87305 -1.87305,1.875 -1.87305,1.875 -6.7793,-6.87305 -6.77929,-6.87305 1.87305,-1.875 1.87304,-1.875 z m 19.97461,0 6.7793,6.87305 6.77929,6.87305 -1.87109,1.875 -1.87305,1.875 -6.77929,-6.87305 -6.7793,-6.87305 1.87109,-1.875 1.87305,-1.875 z m 19.97656,0 6.7793,6.87305 6.7793,6.87305 -1.87305,1.875 -1.87305,1.875 -6.77929,-6.87305 -6.7793,-6.87305 1.87305,-1.875 1.87304,-1.875 z m 19.97657,0 6.77929,6.87305 6.7793,6.87305 -1.87305,1.875 -1.87304,1.875 -6.7793,-6.87305 -6.7793,-6.87305 1.87305,-1.875 1.87305,-1.875 z m 19.97461,0 6.77929,6.87305 6.78125,6.87305 -1.87304,1.875 -1.87305,1.875 -6.7793,-6.87305 -6.7793,-6.87305 1.8711,-1.875 1.87305,-1.875 z m 19.97656,0 6.77929,6.87305 6.7793,6.87305 -1.87304,1.875 -1.8711,1.875 -6.78125,-6.87305 -6.7793,-6.87305 1.87305,-1.875 1.87305,-1.875 z m 19.97656,0 6.7793,6.87305 6.77929,6.87305 -1.87304,1.875 -1.87305,1.875 -6.7793,-6.87305 -6.77929,-6.87305 1.87304,-1.875 1.87305,-1.875 z m 19.97461,0 6.78125,6.87305 6.7793,6.87305 -1.87305,1.875 -1.87305,1.875 -6.77929,-6.87305 -6.7793,-6.87305 1.87305,-1.875 1.87109,-1.875 z m 19.97656,0 6.7793,6.87305 6.7793,6.87305 -1.8711,1.875 -1.87304,1.875 -6.7793,-6.87305 -6.78125,-6.87305 1.87305,-1.875 1.87304,-1.875 z m 19.97656,0 6.7793,6.87305 6.7793,6.87305 -1.87305,1.875 -1.87305,1.875 -6.77929,-6.87305 -6.7793,-6.87305 1.87305,-1.875 1.87304,-1.875 z m 19.97657,0 6.77929,6.87305 6.7793,6.87305 -1.87305,1.875 -1.87304,1.875 -6.7793,-6.87305 -6.7793,-6.87305 1.87305,-1.875 1.87305,-1.875 z m 19.97461,0 6.77929,6.87305 6.7793,6.87305 -1.87109,1.875 -1.87305,1.875 -6.7793,-6.87305 -6.77929,-6.87305 1.87109,-1.875 1.87305,-1.875 z m 19.97656,0 6.7793,6.87305 6.77929,6.87305 -1.87304,1.875 -1.87305,1.875 -6.7793,-6.87305 -6.77929,-6.87305 1.87304,-1.875 1.87305,-1.875 z m 19.97656,0 6.7793,6.87305 6.7793,6.87305 -1.87305,1.875 -1.87305,1.875 -6.7793,-6.87305 -6.77929,-6.87305 1.87305,-1.875 1.87304,-1.875 z m 19.37696,17.98243 -2.73243,2.73632 -6.77343,6.7793 9.50586,0 0,-0.55859 -3.14649,-3.18946 1.87305,-1.875 1.27344,-1.27539 0,-2.61718 z m -320,8.56836 0,0.94726 0.93359,0 -0.93359,-0.94726 z"
          />
  </g>
</svg>
